<svg width="187" height="53" viewBox="0 0 187 53" fill="none" xmlns="http://www.w3.org/2000/svg">
<path d="M8.47 40.045C7.11667 40.045 5.88 39.6833 4.76 38.96C3.64 38.26 2.75333 37.2567 2.1 35.95C1.44667 34.6433 1.12 33.08 1.12 31.26C1.12 29.4633 1.4 27.655 1.96 25.835C2.52 23.9917 3.29 22.2417 4.27 20.585C5.25 18.905 6.39333 17.4117 7.7 16.105C9.00667 14.775 10.395 13.7367 11.865 12.99C13.3583 12.22 14.8867 11.835 16.45 11.835C16.6833 11.835 17.0217 11.8817 17.465 11.975C17.9317 12.0683 18.3867 12.3483 18.83 12.815C18.69 12.7917 18.5267 12.78 18.34 12.78C18.1767 12.7567 18.0017 12.745 17.815 12.745C16.6017 12.745 15.3767 13.13 14.14 13.9C12.9033 14.6467 11.725 15.6617 10.605 16.945C9.485 18.2283 8.48167 19.6867 7.595 21.32C6.73167 22.93 6.04333 24.61 5.53 26.36C5.01667 28.11 4.76 29.8133 4.76 31.47C4.76 32.6833 4.92333 33.815 5.25 34.865C5.57667 35.915 6.10167 36.755 6.825 37.385C7.54833 38.0383 8.505 38.365 9.695 38.365C10.9783 38.365 12.18 37.98 13.3 37.21C14.42 36.44 15.435 35.4133 16.345 34.13C17.255 32.8233 18.0367 31.3767 18.69 29.79C19.3433 28.18 19.845 26.535 20.195 24.855C20.545 23.1517 20.72 21.53 20.72 19.99C20.72 19.3133 20.6733 18.59 20.58 17.82C20.4867 17.0267 20.3233 16.35 20.09 15.79C19.88 15.23 19.565 14.95 19.145 14.95C18.7483 14.95 18.3167 15.2067 17.85 15.72C17.3833 16.21 16.9283 16.84 16.485 17.61C16.0417 18.38 15.645 19.1967 15.295 20.06C14.9683 20.9 14.735 21.6583 14.595 22.335C13.8017 22.1717 13.23 21.915 12.88 21.565C12.5533 21.215 12.39 20.795 12.39 20.305C12.39 19.675 12.6117 18.975 13.055 18.205C13.4983 17.435 14.07 16.7 14.77 16C15.4933 15.2767 16.24 14.6817 17.01 14.215C17.8033 13.7483 18.5383 13.515 19.215 13.515C19.915 13.515 20.475 13.7717 20.895 14.285C21.3383 14.775 21.6767 15.4167 21.91 16.21C22.1433 17.0033 22.3067 17.855 22.4 18.765C22.4933 19.6517 22.54 20.48 22.54 21.25C22.54 23.63 22.2483 25.8117 21.665 27.795C21.0817 29.755 20.2883 31.4933 19.285 33.01C18.305 34.5267 17.1967 35.81 15.96 36.86C14.7467 37.91 13.4867 38.7033 12.18 39.24C10.8967 39.7767 9.66 40.045 8.47 40.045ZM25.9446 38.05C24.8479 38.05 24.0779 37.6883 23.6346 36.965C23.2146 36.2183 23.0046 35.3433 23.0046 34.34C23.0046 33.1967 23.2146 31.855 23.6346 30.315C24.0546 28.775 24.6029 27.165 25.2796 25.485C25.9796 23.7817 26.7379 22.125 27.5546 20.515C28.3946 18.8817 29.2346 17.4117 30.0746 16.105C30.9146 14.7983 31.6846 13.76 32.3846 12.99C33.1079 12.1967 33.6912 11.8 34.1346 11.8C34.4379 11.8 34.6946 11.9633 34.9046 12.29C35.1146 12.5933 35.2779 12.9667 35.3946 13.41C35.5346 13.83 35.6046 14.2267 35.6046 14.6C35.6046 15.23 35.4412 16.0583 35.1146 17.085C34.8112 18.0883 34.3679 19.1967 33.7846 20.41C33.2246 21.6233 32.5479 22.8717 31.7546 24.155C30.9846 25.415 30.1212 26.6167 29.1646 27.76C28.2312 28.9033 27.2279 29.895 26.1546 30.735C26.0612 31.3183 25.9679 31.9017 25.8746 32.485C25.8046 33.045 25.7696 33.5583 25.7696 34.025C25.7696 34.865 25.9096 35.4833 26.1896 35.88C26.4696 36.2533 26.8312 36.44 27.2746 36.44C27.8579 36.44 28.4529 36.1717 29.0596 35.635C29.6896 35.075 30.2846 34.375 30.8446 33.535C31.4279 32.6717 31.9296 31.785 32.3496 30.875L33.1896 31.33C32.1862 33.4067 31.0662 35.0517 29.8296 36.265C28.5929 37.455 27.2979 38.05 25.9446 38.05ZM26.7846 28.565C27.7646 27.4917 28.6862 26.3017 29.5496 24.995C30.4129 23.6883 31.1712 22.3933 31.8246 21.11C32.5012 19.8033 33.0262 18.625 33.3996 17.575C33.7729 16.5017 33.9712 15.6733 33.9946 15.09V14.985C33.8079 14.985 33.5046 15.2533 33.0846 15.79C32.6879 16.3033 32.2096 17.015 31.6496 17.925C31.0896 18.835 30.5062 19.8733 29.8996 21.04C29.3162 22.2067 28.7446 23.4433 28.1846 24.75C27.6479 26.0333 27.1812 27.305 26.7846 28.565ZM38.4437 22.265C38.0003 22.265 37.592 22.16 37.2187 21.95C36.8687 21.7167 36.6937 21.3667 36.6937 20.9C36.6937 20.34 36.997 19.8617 37.6037 19.465C38.2103 19.0683 38.8403 18.87 39.4937 18.87C39.9137 18.87 40.2637 18.9633 40.5437 19.15C40.847 19.3367 40.9987 19.675 40.9987 20.165C40.9987 20.655 40.7303 21.1333 40.1937 21.6C39.657 22.0433 39.0737 22.265 38.4437 22.265ZM34.3137 38.05C33.287 38.05 32.517 37.7467 32.0037 37.14C31.4903 36.5333 31.2337 35.7983 31.2337 34.935C31.2337 34.3983 31.327 33.7217 31.5137 32.905C31.7003 32.0883 31.957 31.2367 32.2837 30.35C32.6337 29.44 33.0303 28.5883 33.4737 27.795C33.917 27.0017 34.3953 26.36 34.9087 25.87C35.422 25.3567 35.9353 25.1 36.4487 25.1C36.7287 25.1 36.9737 25.1933 37.1837 25.38C37.3937 25.5433 37.4987 25.7883 37.4987 26.115C37.4987 26.4183 37.312 26.8733 36.9387 27.48C36.5887 28.0867 36.1687 28.7867 35.6787 29.58C35.212 30.3733 34.792 31.2017 34.4187 32.065C34.0687 32.905 33.8937 33.71 33.8937 34.48C33.8937 35.2267 34.022 35.7283 34.2787 35.985C34.5587 36.2183 34.9553 36.335 35.4687 36.335C36.262 36.335 37.1253 35.9383 38.0587 35.145C38.992 34.3517 39.9603 32.9633 40.9637 30.98L41.4887 31.54C40.672 33.5933 39.6337 35.1917 38.3737 36.335C37.1137 37.4783 35.7603 38.05 34.3137 38.05ZM58.3636 38.085C57.4536 38.085 56.7769 37.8167 56.3336 37.28C55.8903 36.7433 55.6686 36.1017 55.6686 35.355C55.6686 34.8183 55.7503 34.2817 55.9136 33.745C56.0769 33.2083 56.2403 32.6833 56.4036 32.17C56.5669 31.6333 56.6486 31.155 56.6486 30.735C56.6486 30.3383 56.5669 30.07 56.4036 29.93C56.2636 29.7667 56.0769 29.685 55.8436 29.685C55.3069 29.685 54.6769 30.0933 53.9536 30.91C53.2536 31.7267 52.3786 32.9167 51.3286 34.48C50.9553 35.04 50.6053 35.635 50.2786 36.265C49.9519 36.8717 49.6603 37.385 49.4036 37.805C49.1936 37.805 48.9136 37.77 48.5636 37.7C48.2369 37.63 47.9453 37.525 47.6886 37.385C47.4319 37.2683 47.3036 37.105 47.3036 36.895C47.3036 36.685 47.4203 36.2767 47.6536 35.67C47.8869 35.0633 48.1553 34.3633 48.4586 33.57C48.7619 32.7533 49.0303 31.96 49.2636 31.19C49.4969 30.3967 49.6136 29.7317 49.6136 29.195C49.6136 28.495 49.3686 28.145 48.8786 28.145C48.3886 28.145 47.7936 28.4367 47.0936 29.02C46.4169 29.6033 45.6936 30.3733 44.9236 31.33C44.1769 32.2633 43.4653 33.3133 42.7886 34.48C42.1353 35.6233 41.5986 36.7783 41.1786 37.945C40.9219 37.945 40.6069 37.8867 40.2336 37.77C39.8603 37.6767 39.5336 37.5483 39.2536 37.385C38.9736 37.245 38.8336 37.1167 38.8336 37C38.8336 36.9767 38.9153 36.65 39.0786 36.02C39.2419 35.3667 39.4403 34.5617 39.6736 33.605C39.9069 32.6483 40.1519 31.6683 40.4086 30.665C40.6653 29.6617 40.8869 28.7867 41.0736 28.04C41.1436 27.7833 41.4003 27.5617 41.8436 27.375C42.2869 27.165 42.6719 27.06 42.9986 27.06C43.3253 27.06 43.6053 27.165 43.8386 27.375C44.0719 27.585 44.1886 27.865 44.1886 28.215C44.1886 28.4483 44.1419 28.7867 44.0486 29.23C43.9553 29.6733 43.8386 30.175 43.6986 30.735C44.3519 29.8483 45.0519 28.9967 45.7986 28.18C46.5686 27.3633 47.3503 26.6983 48.1436 26.185C48.9603 25.6483 49.7536 25.38 50.5236 25.38C51.3869 25.38 51.9703 25.695 52.2736 26.325C52.5769 26.9317 52.7286 27.5967 52.7286 28.32C52.7286 28.7867 52.6703 29.23 52.5536 29.65C52.4603 30.0467 52.3203 30.5367 52.1336 31.12C52.8103 30.14 53.5686 29.3 54.4086 28.6C55.2719 27.8767 56.2053 27.515 57.2086 27.515C58.1186 27.515 58.7486 27.795 59.0986 28.355C59.4486 28.8917 59.6236 29.4867 59.6236 30.14C59.6236 30.7467 59.5186 31.3883 59.3086 32.065C59.1219 32.7183 58.9236 33.3483 58.7136 33.955C58.5269 34.5383 58.4336 35.04 58.4336 35.46C58.4336 35.6933 58.4919 35.915 58.6086 36.125C58.7253 36.3117 58.9586 36.405 59.3086 36.405C59.9386 36.405 60.5453 36.1133 61.1286 35.53C61.7119 34.9467 62.2486 34.235 62.7386 33.395C63.2519 32.5317 63.6836 31.715 64.0336 30.945L64.6286 31.68C64.2553 32.6367 63.7653 33.6167 63.1586 34.62C62.5753 35.6 61.8869 36.4167 61.0936 37.07C60.3003 37.7467 59.3903 38.085 58.3636 38.085ZM61.2041 46.8C60.9241 46.8 60.6324 46.695 60.3291 46.485C60.0024 46.275 59.8274 46.0883 59.8041 45.925C60.3874 44.2217 60.8891 42.74 61.3091 41.48C61.7057 40.2433 62.0441 39.065 62.3241 37.945C62.6041 36.8483 62.8607 35.705 63.0941 34.515C63.3041 33.3017 63.5141 31.925 63.7241 30.385C63.9574 28.8217 64.2141 26.9433 64.4941 24.75C64.5407 24.47 64.5991 24.2717 64.6691 24.155C64.7391 24.015 64.9607 23.945 65.3341 23.945C66.0574 23.945 66.5824 24.1433 66.9091 24.54C67.2357 24.9133 67.3991 25.3333 67.3991 25.8C67.3991 26.36 67.2357 27.4567 66.9091 29.09C67.3524 28.4133 67.8541 27.7717 68.4141 27.165C68.9974 26.5583 69.6391 26.0683 70.3391 25.695C71.0391 25.2983 71.7974 25.1 72.6141 25.1C73.7574 25.1 74.7024 25.485 75.4491 26.255C76.1957 27.025 76.5691 28.04 76.5691 29.3C76.5691 30.21 76.3591 31.1783 75.9391 32.205C75.5424 33.2083 74.9707 34.165 74.2241 35.075C73.4774 35.9617 72.5791 36.685 71.5291 37.245C70.4791 37.8283 69.3241 38.12 68.0641 38.12C67.3174 38.12 66.7224 38.0267 66.2791 37.84C65.8357 37.6533 65.6141 37.4433 65.6141 37.21C65.6141 37.0467 65.6957 36.9533 65.8591 36.93C66.0457 36.8833 66.2441 36.86 66.4541 36.86C67.5507 36.8367 68.5424 36.6033 69.4291 36.16C70.3391 35.7167 71.1207 35.145 71.7741 34.445C72.4274 33.7217 72.9291 32.9517 73.2791 32.135C73.6291 31.3183 73.8041 30.5133 73.8041 29.72C73.8041 29.02 73.6407 28.4133 73.3141 27.9C73.0107 27.3867 72.5207 27.13 71.8441 27.13C71.2607 27.13 70.6657 27.3167 70.0591 27.69C69.4757 28.0633 68.9274 28.5417 68.4141 29.125C67.9007 29.685 67.4457 30.28 67.0491 30.91C66.6524 31.5167 66.3491 32.0533 66.1391 32.52C65.6957 34.06 65.2874 35.5883 64.9141 37.105C64.5641 38.645 64.2257 40.0683 63.8991 41.375C63.5724 42.6817 63.2457 43.79 62.9191 44.7C62.5691 45.61 62.1957 46.2283 61.7991 46.555C61.6124 46.7183 61.4141 46.8 61.2041 46.8Z" fill="#800000"/>
<path d="M84.225 26.75C84.225 24.3467 84.7617 22.2 85.835 20.31C86.9317 18.3967 88.4133 16.915 90.28 15.865C92.17 14.7917 94.2817 14.255 96.615 14.255C99.345 14.255 101.737 14.955 103.79 16.355C105.843 17.755 107.278 19.6917 108.095 22.165H102.46C101.9 20.9983 101.107 20.1233 100.08 19.54C99.0767 18.9567 97.91 18.665 96.58 18.665C95.1567 18.665 93.885 19.0033 92.765 19.68C91.6683 20.3333 90.805 21.2667 90.175 22.48C89.5683 23.6933 89.265 25.1167 89.265 26.75C89.265 28.36 89.5683 29.7833 90.175 31.02C90.805 32.2333 91.6683 33.1783 92.765 33.855C93.885 34.5083 95.1567 34.835 96.58 34.835C97.91 34.835 99.0767 34.5433 100.08 33.96C101.107 33.3533 101.9 32.4667 102.46 31.3H108.095C107.278 33.7967 105.843 35.745 103.79 37.145C101.76 38.5217 99.3683 39.21 96.615 39.21C94.2817 39.21 92.17 38.685 90.28 37.635C88.4133 36.5617 86.9317 35.08 85.835 33.19C84.7617 31.3 84.225 29.1533 84.225 26.75ZM123.62 39.245C121.334 39.245 119.234 38.7083 117.32 37.635C115.407 36.5617 113.89 35.08 112.77 33.19C111.65 31.2767 111.09 29.1183 111.09 26.715C111.09 24.335 111.65 22.2 112.77 20.31C113.89 18.3967 115.407 16.9033 117.32 15.83C119.234 14.7567 121.334 14.22 123.62 14.22C125.93 14.22 128.03 14.7567 129.92 15.83C131.834 16.9033 133.339 18.3967 134.435 20.31C135.555 22.2 136.115 24.335 136.115 26.715C136.115 29.1183 135.555 31.2767 134.435 33.19C133.339 35.08 131.834 36.5617 129.92 37.635C128.007 38.7083 125.907 39.245 123.62 39.245ZM123.62 34.87C125.09 34.87 126.385 34.5433 127.505 33.89C128.625 33.2133 129.5 32.2567 130.13 31.02C130.76 29.7833 131.075 28.3483 131.075 26.715C131.075 25.0817 130.76 23.6583 130.13 22.445C129.5 21.2083 128.625 20.2633 127.505 19.61C126.385 18.9567 125.09 18.63 123.62 18.63C122.15 18.63 120.844 18.9567 119.7 19.61C118.58 20.2633 117.705 21.2083 117.075 22.445C116.445 23.6583 116.13 25.0817 116.13 26.715C116.13 28.3483 116.445 29.7833 117.075 31.02C117.705 32.2567 118.58 33.2133 119.7 33.89C120.844 34.5433 122.15 34.87 123.62 34.87ZM151.101 39.245C148.814 39.245 146.714 38.7083 144.801 37.635C142.887 36.5617 141.371 35.08 140.251 33.19C139.131 31.2767 138.571 29.1183 138.571 26.715C138.571 24.335 139.131 22.2 140.251 20.31C141.371 18.3967 142.887 16.9033 144.801 15.83C146.714 14.7567 148.814 14.22 151.101 14.22C153.411 14.22 155.511 14.7567 157.401 15.83C159.314 16.9033 160.819 18.3967 161.916 20.31C163.036 22.2 163.596 24.335 163.596 26.715C163.596 29.1183 163.036 31.2767 161.916 33.19C160.819 35.08 159.314 36.5617 157.401 37.635C155.487 38.7083 153.387 39.245 151.101 39.245ZM151.101 34.87C152.571 34.87 153.866 34.5433 154.986 33.89C156.106 33.2133 156.981 32.2567 157.611 31.02C158.241 29.7833 158.556 28.3483 158.556 26.715C158.556 25.0817 158.241 23.6583 157.611 22.445C156.981 21.2083 156.106 20.2633 154.986 19.61C153.866 18.9567 152.571 18.63 151.101 18.63C149.631 18.63 148.324 18.9567 147.181 19.61C146.061 20.2633 145.186 21.2083 144.556 22.445C143.926 23.6583 143.611 25.0817 143.611 26.715C143.611 28.3483 143.926 29.7833 144.556 31.02C145.186 32.2567 146.061 33.2133 147.181 33.89C148.324 34.5433 149.631 34.87 151.101 34.87ZM185.056 22.13C185.056 23.4367 184.741 24.6617 184.111 25.805C183.505 26.9483 182.536 27.87 181.206 28.57C179.9 29.27 178.243 29.62 176.236 29.62H172.141V39H167.241V14.57H176.236C178.126 14.57 179.736 14.8967 181.066 15.55C182.396 16.2033 183.388 17.1017 184.041 18.245C184.718 19.3883 185.056 20.6833 185.056 22.13ZM176.026 25.665C177.38 25.665 178.383 25.3617 179.036 24.755C179.69 24.125 180.016 23.25 180.016 22.13C180.016 19.75 178.686 18.56 176.026 18.56H172.141V25.665H176.026Z" fill="black"/>
</svg>
