<svg width="60" height="60" viewBox="0 0 60 60" fill="none" xmlns="http://www.w3.org/2000/svg">
<g clip-path="url(#clip0_32_100)">
<path d="M30.0001 36.7742C27.3322 36.7742 25.1614 38.945 25.1614 41.6129C25.1614 44.2808 27.3322 46.4516 30.0001 46.4516C32.668 46.4516 34.8388 44.2808 34.8388 41.6129C34.8388 38.945 32.668 36.7742 30.0001 36.7742ZM30.0001 44.5161C28.3996 44.5161 27.0969 43.2133 27.0969 41.6129C27.0969 40.0124 28.3996 38.7097 30.0001 38.7097C31.6005 38.7097 32.9033 40.0124 32.9033 41.6129C32.9033 43.2133 31.6005 44.5161 30.0001 44.5161Z" fill="#025CBD"/>
<path d="M29.0322 3.87097H36.7742V5.80646H29.0322V3.87097Z" fill="#025CBD"/>
<path d="M29.0322 7.74194H36.7742V9.67743H29.0322V7.74194Z" fill="#025CBD"/>
<path d="M23.2258 11.6129H36.7742V13.5484H23.2258V11.6129Z" fill="#025CBD"/>
<path d="M23.2258 15.4839H36.7742V17.4194H23.2258V15.4839Z" fill="#025CBD"/>
<path d="M23.2258 19.3549H36.7742V21.2903H23.2258V19.3549Z" fill="#025CBD"/>
<path d="M60 30.9677V23.2258H46.4516V30.9677H52.2581V40.6452H40.6452V38.9795L38.2693 38.1871L39.3892 35.9477L35.6652 32.2237L33.4249 33.3446L32.6334 30.9677H30.9677V25.1613H40.6452V13.5484H52.2581V18.9541L50.0391 16.7351L48.6706 18.1036L53.2258 22.6588L57.781 18.1036L56.4125 16.7351L54.1935 18.9541V11.6129H40.6452V0H25.7283L19.3548 6.37349V11.6129H5.80645V18.9541L3.58745 16.7351L2.219 18.1036L6.77419 22.6588L11.3294 18.1036L9.96094 16.7351L7.74194 18.9541V13.5484H19.3548V25.1613H29.0323V30.9677H27.3666L26.5751 33.3446L24.3348 32.2237L20.6108 35.9477L21.7307 38.1871L19.3548 38.9795V40.6452H7.74194V30.9677H13.5484V23.2258H0V30.9677H5.80645V46.5891C4.14078 47.0215 2.90323 48.5246 2.90323 50.3226C2.90323 52.4575 4.6393 54.1935 6.77419 54.1935C8.90909 54.1935 10.6452 52.4575 10.6452 50.3226C10.6452 48.5246 9.4076 47.0215 7.74194 46.5891V42.5806H13.5484V54.3717C12.4247 54.7724 11.6129 55.837 11.6129 57.0968C11.6129 58.6972 12.9157 60 14.5161 60C16.1166 60 17.4194 58.6972 17.4194 57.0968C17.4194 55.837 16.6075 54.7724 15.4839 54.3717V42.5806H19.3548V44.2463L21.7307 45.0387L20.6108 47.2781L24.3348 51.0021L26.5751 49.8812L27.3666 52.2581H32.6325L33.424 49.8812L35.6642 51.0021L39.3882 47.2781L38.2683 45.0387L40.6452 44.2463V42.5806H44.5161V54.3717C43.3925 54.7724 42.5806 55.837 42.5806 57.0968C42.5806 58.6972 43.8834 60 45.4839 60C47.0843 60 48.3871 58.6972 48.3871 57.0968C48.3871 55.837 47.5753 54.7724 46.4516 54.3717V42.5806H52.2581V46.5891C50.5924 47.0215 49.3548 48.5246 49.3548 50.3226C49.3548 52.4575 51.0909 54.1935 53.2258 54.1935C55.3607 54.1935 57.0968 52.4575 57.0968 50.3226C57.0968 48.5246 55.8592 47.0215 54.1935 46.5891V30.9677H60ZM25.1613 3.30393V5.80645H22.6588L25.1613 3.30393ZM21.2903 7.74194H27.0968V1.93548H38.7097V23.2258H21.2903V7.74194ZM1.93548 25.1613H11.6129V29.0323H1.93548V25.1613ZM8.70968 50.3226C8.70968 51.39 7.84164 52.2581 6.77419 52.2581C5.70675 52.2581 4.83871 51.39 4.83871 50.3226C4.83871 49.2551 5.70675 48.3871 6.77419 48.3871C7.84164 48.3871 8.70968 49.2551 8.70968 50.3226ZM14.5161 58.0645C13.9822 58.0645 13.5484 57.6298 13.5484 57.0968C13.5484 56.5638 13.9822 56.129 14.5161 56.129C15.0501 56.129 15.4839 56.5638 15.4839 57.0968C15.4839 57.6298 15.0501 58.0645 14.5161 58.0645ZM38.7097 42.8505L36.4897 43.5909L36.3262 44.0176C36.2776 44.1414 36.2294 44.2647 36.176 44.3843L35.9884 44.8034L37.0346 46.8958L35.2838 48.6465L33.1915 47.6003L32.7728 47.7879C32.6537 47.8413 32.5328 47.8895 32.4099 47.9363L31.979 48.0989L31.2376 50.3226H28.7615L28.0201 48.0989L27.5891 47.9363C27.4663 47.8895 27.3453 47.8413 27.2262 47.7879L26.8076 47.6003L24.7152 48.6465L22.9645 46.8958L24.0107 44.8034L23.8231 44.3843C23.7687 44.2633 23.7215 44.1414 23.6728 44.0176L23.5093 43.5909L21.2903 42.8505V40.3744L23.5103 39.6339L23.6738 39.2073C23.7224 39.0834 23.7706 38.9601 23.824 38.8401L24.0116 38.4214L22.9654 36.3291L24.7162 34.5783L26.8085 35.6245L27.2272 35.4369C27.3463 35.3835 27.4672 35.3353 27.5901 35.2886L28.021 35.126L28.7624 32.9032H31.2385L31.9799 35.127L32.4108 35.2895C32.5337 35.3363 32.6547 35.3845 32.7738 35.4379L33.1924 35.6255L35.2848 34.5793L37.0355 36.33L35.9893 38.4224L36.1769 38.8415C36.2313 38.9625 36.2785 39.0844 36.3272 39.2082L36.4907 39.6349L38.7097 40.3753V42.8505ZM45.4839 58.0645C44.9499 58.0645 44.5161 57.6298 44.5161 57.0968C44.5161 56.5638 44.9499 56.129 45.4839 56.129C46.0178 56.129 46.4516 56.5638 46.4516 57.0968C46.4516 57.6298 46.0178 58.0645 45.4839 58.0645ZM55.1613 50.3226C55.1613 51.39 54.2933 52.2581 53.2258 52.2581C52.1584 52.2581 51.2903 51.39 51.2903 50.3226C51.2903 49.2551 52.1584 48.3871 53.2258 48.3871C54.2933 48.3871 55.1613 49.2551 55.1613 50.3226ZM48.3871 25.1613H58.0645V29.0323H48.3871V25.1613Z" fill="#025CBD"/>
</g>
<defs>
<clipPath id="clip0_32_100">
<rect width="60" height="60" fill="white"/>
</clipPath>
</defs>
</svg>
