<svg width="60" height="60" viewBox="0 0 60 60" fill="none" xmlns="http://www.w3.org/2000/svg">
<path d="M57.1875 11.25H43.125V10.3125H43.1166C43.1181 10.1899 43.0954 10.0682 43.0497 9.95448C43.004 9.84073 42.9362 9.73714 42.8503 9.64969L35.3503 2.14969C35.2628 2.0639 35.1592 1.99629 35.0454 1.95075C34.9317 1.90521 34.81 1.88265 34.6875 1.88437V1.875H10.3125C10.0639 1.875 9.8254 1.97377 9.64959 2.14959C9.47377 2.3254 9.375 2.56386 9.375 2.8125V11.25H2.8125C2.56386 11.25 2.3254 11.3488 2.14959 11.5246C1.97377 11.7004 1.875 11.9389 1.875 12.1875V47.8125C1.875 48.0611 1.97377 48.2996 2.14959 48.4754C2.3254 48.6512 2.56386 48.75 2.8125 48.75H27.1875V52.5H21.5625C21.3139 52.5001 21.0755 52.5989 20.8997 52.7747L17.1497 56.5247C17.0186 56.6558 16.9294 56.8228 16.8932 57.0047C16.857 57.1865 16.8756 57.375 16.9466 57.5462C17.0175 57.7175 17.1376 57.8639 17.2918 57.9669C17.4459 58.07 17.6271 58.125 17.8125 58.125H42.1875C42.3729 58.125 42.5541 58.07 42.7082 57.9669C42.8624 57.8639 42.9825 57.7175 43.0534 57.5462C43.1244 57.375 43.143 57.1865 43.1068 57.0047C43.0706 56.8228 42.9814 56.6558 42.8503 56.5247L39.1003 52.7747C38.9245 52.5989 38.6861 52.5001 38.4375 52.5H32.8125V48.75H57.1875C57.4361 48.75 57.6746 48.6512 57.8504 48.4754C58.0262 48.2996 58.125 48.0611 58.125 47.8125V12.1875C58.125 11.9389 58.0262 11.7004 57.8504 11.5246C57.6746 11.3488 57.4361 11.25 57.1875 11.25ZM56.25 13.125V22.5H54.375V15.9375C54.375 15.6889 54.2762 15.4504 54.1004 15.2746C53.9246 15.0988 53.6861 15 53.4375 15H43.125V13.125H56.25ZM43.125 16.875H52.5V22.5H43.125V16.875ZM35.625 5.07562L39.9244 9.375H35.625V5.07562ZM11.25 3.75H33.75V10.3125C33.75 10.5611 33.8488 10.7996 34.0246 10.9754C34.2004 11.1512 34.4389 11.25 34.6875 11.25H41.25V22.5H40.3125C40.0639 22.5 39.8254 22.5988 39.6496 22.7746C39.4738 22.9504 39.375 23.1889 39.375 23.4375V43.125H11.25V3.75ZM7.5 43.125V16.875H9.375V43.125H7.5ZM3.75 13.125H9.375V15H6.5625C6.31386 15 6.0754 15.0988 5.89959 15.2746C5.72377 15.4504 5.625 15.6889 5.625 15.9375V44.0625C5.625 44.3111 5.72377 44.5496 5.89959 44.7254C6.0754 44.9012 6.31386 45 6.5625 45H39.375V46.875H3.75V13.125ZM39.9244 56.25H20.0756L21.9506 54.375H38.0494L39.9244 56.25ZM30.9375 52.5H29.0625V48.75H30.9375V52.5ZM56.25 46.875H41.25V24.375H56.25V46.875Z" fill="#025CBD"/>
<path d="M26.25 22.5C27.7334 22.5 29.1834 22.0601 30.4168 21.236C31.6501 20.4119 32.6114 19.2406 33.1791 17.8701C33.7468 16.4997 33.8953 14.9917 33.6059 13.5368C33.3165 12.082 32.6022 10.7456 31.5533 9.6967C30.5044 8.64781 29.168 7.9335 27.7132 7.64411C26.2583 7.35472 24.7503 7.50325 23.3799 8.07091C22.0094 8.63856 20.8381 9.59986 20.014 10.8332C19.1899 12.0666 18.75 13.5166 18.75 15C18.7522 16.9884 19.5431 18.8948 20.9492 20.3008C22.3552 21.7069 24.2616 22.4978 26.25 22.5ZM31.7906 14.0625H27.1875V9.45938C28.3368 9.65581 29.3969 10.2041 30.2214 11.0286C31.0459 11.8531 31.5942 12.9132 31.7906 14.0625ZM25.3125 9.45938V15C25.3125 15.2486 25.4113 15.4871 25.5871 15.6629C25.7629 15.8387 26.0014 15.9375 26.25 15.9375H31.7906C31.6197 16.9563 31.1716 17.9083 30.4953 18.6892C29.8191 19.4701 28.9408 20.0497 27.9569 20.3644C26.973 20.6792 25.9214 20.7169 24.9175 20.4734C23.9136 20.23 22.9961 19.7148 22.2657 18.9843C21.5352 18.2539 21.02 17.3364 20.7766 16.3325C20.5331 15.3286 20.5708 14.277 20.8856 13.2931C21.2003 12.3092 21.7799 11.4309 22.5608 10.7547C23.3417 10.0784 24.2937 9.63029 25.3125 9.45938Z" fill="#025CBD"/>
<path d="M13.125 24.375H15V26.25H13.125V24.375Z" fill="#025CBD"/>
<path d="M16.875 24.375H37.5V26.25H16.875V24.375Z" fill="#025CBD"/>
<path d="M13.125 28.125H15V30H13.125V28.125Z" fill="#025CBD"/>
<path d="M16.875 28.125H37.5V30H16.875V28.125Z" fill="#025CBD"/>
<path d="M13.125 31.875H15V33.75H13.125V31.875Z" fill="#025CBD"/>
<path d="M16.875 31.875H37.5V33.75H16.875V31.875Z" fill="#025CBD"/>
<path d="M13.125 35.625H15V37.5H13.125V35.625Z" fill="#025CBD"/>
<path d="M16.875 35.625H37.5V37.5H16.875V35.625Z" fill="#025CBD"/>
<path d="M13.125 39.375H15V41.25H13.125V39.375Z" fill="#025CBD"/>
<path d="M16.875 39.375H37.5V41.25H16.875V39.375Z" fill="#025CBD"/>
<path d="M43.125 32.8125H54.375C54.6236 32.8125 54.8621 32.7137 55.0379 32.5379C55.2137 32.3621 55.3125 32.1236 55.3125 31.875V26.25C55.3125 26.0014 55.2137 25.7629 55.0379 25.5871C54.8621 25.4113 54.6236 25.3125 54.375 25.3125H43.125C42.8764 25.3125 42.6379 25.4113 42.4621 25.5871C42.2863 25.7629 42.1875 26.0014 42.1875 26.25V31.875C42.1875 32.1236 42.2863 32.3621 42.4621 32.5379C42.6379 32.7137 42.8764 32.8125 43.125 32.8125ZM44.0625 27.1875H53.4375V30.9375H44.0625V27.1875Z" fill="#025CBD"/>
<path d="M43.125 39.375H46.875C47.1236 39.375 47.3621 39.2762 47.5379 39.1004C47.7137 38.9246 47.8125 38.6861 47.8125 38.4375V34.6875C47.8125 34.4389 47.7137 34.2004 47.5379 34.0246C47.3621 33.8488 47.1236 33.75 46.875 33.75H43.125C42.8764 33.75 42.6379 33.8488 42.4621 34.0246C42.2863 34.2004 42.1875 34.4389 42.1875 34.6875V38.4375C42.1875 38.6861 42.2863 38.9246 42.4621 39.1004C42.6379 39.2762 42.8764 39.375 43.125 39.375ZM44.0625 35.625H45.9375V37.5H44.0625V35.625Z" fill="#025CBD"/>
<path d="M54.375 33.75H50.625C50.3764 33.75 50.1379 33.8488 49.9621 34.0246C49.7863 34.2004 49.6875 34.4389 49.6875 34.6875V38.4375C49.6875 38.6861 49.7863 38.9246 49.9621 39.1004C50.1379 39.2762 50.3764 39.375 50.625 39.375H54.375C54.6236 39.375 54.8621 39.2762 55.0379 39.1004C55.2137 38.9246 55.3125 38.6861 55.3125 38.4375V34.6875C55.3125 34.4389 55.2137 34.2004 55.0379 34.0246C54.8621 33.8488 54.6236 33.75 54.375 33.75ZM53.4375 37.5H51.5625V35.625H53.4375V37.5Z" fill="#025CBD"/>
<path d="M43.125 45.9375H46.875C47.1236 45.9375 47.3621 45.8387 47.5379 45.6629C47.7137 45.4871 47.8125 45.2486 47.8125 45V41.25C47.8125 41.0014 47.7137 40.7629 47.5379 40.5871C47.3621 40.4113 47.1236 40.3125 46.875 40.3125H43.125C42.8764 40.3125 42.6379 40.4113 42.4621 40.5871C42.2863 40.7629 42.1875 41.0014 42.1875 41.25V45C42.1875 45.2486 42.2863 45.4871 42.4621 45.6629C42.6379 45.8387 42.8764 45.9375 43.125 45.9375ZM44.0625 42.1875H45.9375V44.0625H44.0625V42.1875Z" fill="#025CBD"/>
<path d="M54.375 40.3125H50.625C50.3764 40.3125 50.1379 40.4113 49.9621 40.5871C49.7863 40.7629 49.6875 41.0014 49.6875 41.25V45C49.6875 45.2486 49.7863 45.4871 49.9621 45.6629C50.1379 45.8387 50.3764 45.9375 50.625 45.9375H54.375C54.6236 45.9375 54.8621 45.8387 55.0379 45.6629C55.2137 45.4871 55.3125 45.2486 55.3125 45V41.25C55.3125 41.0014 55.2137 40.7629 55.0379 40.5871C54.8621 40.4113 54.6236 40.3125 54.375 40.3125ZM53.4375 44.0625H51.5625V42.1875H53.4375V44.0625Z" fill="#025CBD"/>
</svg>
