<svg width="60" height="60" viewBox="0 0 60 60" fill="none" xmlns="http://www.w3.org/2000/svg">
<path d="M51.2109 15.1172H49.5703V8.78906C49.5703 3.94277 45.6275 0 40.7812 0H19.2188C14.3725 0 10.4297 3.94277 10.4297 8.78906V15.1172H8.78906C3.94277 15.1172 0 19.06 0 23.9062V37.9688C0 42.815 3.94277 46.7578 8.78906 46.7578H10.4297V54.7266C10.4297 57.6343 12.7954 60 15.7031 60H44.2969C47.2046 60 49.5703 57.6343 49.5703 54.7266V46.7578H51.2109C56.0572 46.7578 60 42.815 60 37.9688V23.9062C60 19.06 56.0572 15.1172 51.2109 15.1172ZM13.9453 8.78906C13.9453 5.88129 16.311 3.51562 19.2188 3.51562H40.7812C43.689 3.51562 46.0547 5.88129 46.0547 8.78906V15.1172H13.9453V8.78906ZM46.0547 54.7266C46.0547 55.6958 45.2661 56.4844 44.2969 56.4844H15.7031C14.7339 56.4844 13.9453 55.6958 13.9453 54.7266V37.3828H46.0547V54.7266ZM56.4844 37.9688C56.4844 40.8765 54.1187 43.2422 51.2109 43.2422H49.5703V37.3828H50.625C51.5958 37.3828 52.3828 36.5958 52.3828 35.625C52.3828 34.6542 51.5958 33.8672 50.625 33.8672H9.375C8.40422 33.8672 7.61719 34.6542 7.61719 35.625C7.61719 36.5958 8.40422 37.3828 9.375 37.3828H10.4297V43.2422H8.78906C5.88129 43.2422 3.51562 40.8765 3.51562 37.9688V23.9062C3.51562 20.9985 5.88129 18.6328 8.78906 18.6328H51.2109C54.1187 18.6328 56.4844 20.9985 56.4844 23.9062V37.9688Z" fill="#025CBD"/>
<path d="M34.6875 41.3672H25.3125C24.3417 41.3672 23.5547 42.1542 23.5547 43.125C23.5547 44.0958 24.3417 44.8828 25.3125 44.8828H34.6875C35.6583 44.8828 36.4453 44.0958 36.4453 43.125C36.4453 42.1542 35.6583 41.3672 34.6875 41.3672Z" fill="#025CBD"/>
<path d="M34.6875 48.8672H25.3125C24.3417 48.8672 23.5547 49.6542 23.5547 50.625C23.5547 51.5958 24.3417 52.3828 25.3125 52.3828H34.6875C35.6583 52.3828 36.4453 51.5958 36.4453 50.625C36.4453 49.6542 35.6583 48.8672 34.6875 48.8672Z" fill="#025CBD"/>
<path d="M15 22.6172H9.375C8.40422 22.6172 7.61719 23.4042 7.61719 24.375C7.61719 25.3458 8.40422 26.1328 9.375 26.1328H15C15.9708 26.1328 16.7578 25.3458 16.7578 24.375C16.7578 23.4042 15.9708 22.6172 15 22.6172Z" fill="#025CBD"/>
</svg>
