<svg width="508" height="317" viewBox="0 0 508 317" fill="none" xmlns="http://www.w3.org/2000/svg">
<rect width="508" height="317" fill="#025CBD"/>
<path d="M254 134C240.214 134 229 145.215 229 159C229 172.785 240.214 184 254 184C267.786 184 279 172.785 279 159C279 145.215 267.786 134 254 134ZM254 181.917C241.364 181.917 231.083 171.636 231.083 159C231.083 146.364 241.364 136.083 254 136.083C266.636 136.083 276.917 146.364 276.917 159C276.917 171.636 266.636 181.917 254 181.917Z" fill="white"/>
<path d="M263.939 158.124L249.355 148.749C249.036 148.541 248.623 148.529 248.293 148.71C247.958 148.893 247.75 149.243 247.75 149.625V168.375C247.75 168.756 247.958 169.106 248.293 169.289C248.448 169.374 248.621 169.417 248.792 169.417C248.987 169.417 249.184 169.362 249.355 169.251L263.939 159.876C264.236 159.685 264.417 159.354 264.417 159C264.417 158.646 264.236 158.315 263.939 158.124ZM249.833 166.467V151.533L261.448 159L249.833 166.467Z" fill="white"/>
</svg>
