<svg width="426" height="409" viewBox="0 0 426 409" fill="none" xmlns="http://www.w3.org/2000/svg">
<path d="M380.825 126.257C384.109 131.481 387.988 136.331 392.36 140.684L380.825 126.257Z" fill="white"/>
<path d="M303.401 140.294C307.243 135.554 311.085 130.812 314.928 126.071L303.401 140.294Z" fill="white"/>
<path d="M314.927 126.071C315.03 126.154 312.533 129.406 309.35 133.334C306.167 137.261 303.503 140.377 303.4 140.294C303.298 140.211 305.794 136.96 308.978 133.032C312.161 129.105 314.826 125.987 314.927 126.071Z" fill="#E1E1E1"/>
<path d="M115.839 62.6001C112.087 59.5592 108.335 56.5183 104.583 53.4774L115.839 62.6001Z" fill="white"/>
<path d="M104.583 53.4773C104.669 53.3702 107.26 55.3254 110.368 57.8446C113.476 60.3647 115.926 62.4929 115.839 62.6C115.752 62.7072 113.162 60.752 110.054 58.2319C106.946 55.7127 104.496 53.5845 104.583 53.4773Z" fill="#E1E1E1"/>
<path d="M192.516 1.35978C194.813 0.720576 197.229 0.371838 199.728 0.371838C214.701 0.371838 226.839 12.6511 226.839 27.7982C226.839 32.6853 225.57 37.2697 223.357 41.243L226.839 55.9897L214.088 51.0594C209.923 53.6961 205.003 55.2255 199.728 55.2255C197.229 55.2255 194.813 54.8768 192.516 54.2366" stroke="#025CBD" stroke-width="0.5"/>
<path d="M399.632 393.931C399.632 394.066 310.247 394.176 200.01 394.176C89.7339 394.176 0.368164 394.066 0.368164 393.931C0.368164 393.796 89.7339 393.686 200.01 393.686C310.247 393.686 399.632 393.796 399.632 393.931Z" fill="#007AFF"/>
<path d="M107.96 363.748L108.728 387.141L114.67 405.469C115.099 406.79 114.319 408.197 112.972 408.534C112.218 408.723 111.424 408.54 110.834 408.033C107.077 404.813 93.3153 392.893 93.3557 391.178C93.4018 389.191 90.908 366.555 90.908 366.555L107.96 363.748Z" fill="#025CBD"/>
<path d="M112.972 408.534L93.2673 389.601L93.3228 390.59C93.3707 391.447 93.7167 392.26 94.3079 392.88C95.889 394.541 100.355 399.033 110.764 408.039C111.369 408.562 112.201 408.749 112.972 408.534Z" fill="#E1E1E1"/>
<path d="M97.6434 381.795C98.2515 382.167 98.4922 383.042 98.1453 383.664C97.7985 384.288 96.9102 384.54 96.2964 384.179C95.6816 383.817 95.3601 382.776 95.7747 382.196C96.1892 381.616 97.2476 381.376 97.758 381.875" fill="white"/>
<path d="M107.061 398.622C107.197 398.679 107.655 397.426 109.009 396.689C110.34 395.914 111.649 396.171 111.671 396.025C111.688 395.966 111.382 395.801 110.831 395.755C110.284 395.704 109.498 395.825 108.757 396.242C108.017 396.66 107.506 397.27 107.265 397.763C107.02 398.258 107.002 398.605 107.061 398.622Z" fill="#1A2E35"/>
<path d="M108.9 401.658C109.017 401.754 109.724 400.952 110.914 400.538C112.094 400.098 113.15 400.265 113.18 400.116C113.241 399.993 112.088 399.56 110.74 400.054C109.387 400.533 108.775 401.601 108.9 401.658Z" fill="#1A2E35"/>
<path d="M103.739 394.783C103.855 394.887 104.938 393.649 106.73 392.844C108.511 392.011 110.156 392 110.152 391.843C110.183 391.716 108.429 391.488 106.517 392.376C104.595 393.245 103.623 394.725 103.739 394.783Z" fill="#1A2E35"/>
<path d="M102.912 387.692C102.982 387.828 104.243 387.216 105.92 387.062C107.594 386.885 108.95 387.238 108.992 387.089C109.05 386.971 107.669 386.364 105.869 386.55C104.067 386.721 102.832 387.587 102.912 387.692Z" fill="#1A2E35"/>
<path d="M102.513 380.83C102.593 380.961 103.847 380.11 105.626 380.092C107.405 380.034 108.694 380.832 108.769 380.697C108.803 380.646 108.533 380.367 107.976 380.086C107.424 379.804 106.573 379.559 105.615 379.578C104.658 379.6 103.818 379.88 103.278 380.185C102.735 380.49 102.475 380.78 102.513 380.83Z" fill="#1A2E35"/>
<path d="M105.512 378.788C105.542 378.787 105.577 378.471 105.494 377.904C105.411 377.34 105.201 376.516 104.663 375.627C104.387 375.207 104.092 374.663 103.423 374.392C103.089 374.255 102.61 374.342 102.35 374.666C102.092 374.982 102.026 375.371 102.039 375.743C102.147 377.224 103.499 378.588 105.18 378.708C106.865 378.8 108.33 377.757 108.921 376.44C109.049 376.101 109.126 375.688 108.922 375.304C108.723 374.915 108.239 374.783 107.907 374.858C107.219 375.001 106.803 375.425 106.412 375.746C105.643 376.437 105.183 377.146 104.919 377.649C104.654 378.157 104.576 378.465 104.605 378.477C104.689 378.534 105.131 377.296 106.648 376.021C107.033 375.726 107.474 375.355 107.971 375.281C108.213 375.244 108.428 375.327 108.525 375.519C108.626 375.703 108.593 375.998 108.481 376.266C107.979 377.346 106.638 378.295 105.215 378.195C103.797 378.109 102.61 376.907 102.512 375.715C102.493 375.429 102.554 375.135 102.697 374.956C102.839 374.779 103.067 374.721 103.287 374.796C103.752 374.954 104.084 375.428 104.357 375.823C105.437 377.484 105.409 378.817 105.512 378.788Z" fill="#1A2E35"/>
<path d="M153.502 367.223L152.29 384.714C152.29 384.714 169.663 391.822 169.753 395.076L135.753 393.944L136.523 366.612L153.502 367.223Z" fill="#025CBD"/>
<path d="M141.825 382.892C141.161 383.049 140.682 383.774 140.813 384.444C140.943 385.114 141.676 385.608 142.342 385.461C143.01 385.316 143.611 384.463 143.407 383.812C143.202 383.161 142.309 382.628 141.697 382.93" fill="#E1E1E1"/>
<path d="M135.753 393.945L135.938 391.192L168.469 393.306C168.469 393.306 169.96 394.015 169.754 395.075L135.753 393.945Z" fill="#E1E1E1"/>
<path d="M152.847 384.56C152.836 384.727 152.004 384.774 151.168 385.28C150.32 385.765 149.876 386.47 149.725 386.4C149.573 386.362 149.853 385.378 150.875 384.782C151.891 384.178 152.887 384.409 152.847 384.56Z" fill="#1A2E35"/>
<path d="M156.364 386.154C156.397 386.316 155.669 386.574 155.081 387.258C154.474 387.924 154.307 388.679 154.141 388.666C153.984 388.686 153.901 387.71 154.648 386.875C155.387 386.033 156.365 385.995 156.364 386.154Z" fill="#1A2E35"/>
<path d="M158.247 390.489C158.095 390.52 157.892 389.683 158.349 388.787C158.799 387.888 159.593 387.557 159.659 387.697C159.748 387.837 159.228 388.309 158.865 389.048C158.483 389.78 158.413 390.478 158.247 390.489Z" fill="#1A2E35"/>
<path d="M152.681 380.543C152.606 380.692 151.853 380.438 150.912 380.47C149.971 380.484 149.23 380.775 149.148 380.629C149.056 380.506 149.789 379.915 150.898 379.893C152.005 379.861 152.766 380.416 152.681 380.543Z" fill="#1A2E35"/>
<path d="M152.86 377.01C152.86 377.078 152.2 377.159 151.157 376.944C150.639 376.836 150.03 376.645 149.394 376.338C149.077 376.184 148.753 376 148.434 375.786C148.28 375.68 148.098 375.573 147.933 375.369C147.754 375.189 147.665 374.746 147.886 374.483C148.069 374.228 148.38 374.125 148.626 374.128C148.877 374.128 149.079 374.185 149.262 374.237C149.638 374.341 149.988 374.48 150.308 374.636C150.948 374.953 151.463 375.344 151.844 375.718C152.608 376.475 152.857 377.105 152.8 377.135C152.723 377.186 152.356 376.654 151.573 376.024C151.183 375.711 150.682 375.385 150.083 375.118C149.784 374.987 149.459 374.872 149.115 374.784C148.759 374.678 148.452 374.665 148.355 374.822C148.319 374.882 148.313 374.906 148.386 375.014C148.46 375.113 148.603 375.214 148.753 375.319C149.048 375.525 149.345 375.705 149.636 375.862C150.22 376.177 150.78 376.397 151.261 376.549C152.227 376.853 152.866 376.92 152.86 377.01Z" fill="#1A2E35"/>
<path d="M152.636 377.24C152.577 377.264 152.267 376.658 152.241 375.58C152.231 375.046 152.308 374.402 152.537 373.725C152.652 373.386 152.805 373.041 153.005 372.705C153.214 372.375 153.473 371.933 154.119 371.881C154.456 371.88 154.727 372.152 154.814 372.38C154.919 372.613 154.934 372.811 154.968 373.009C155.018 373.409 154.997 373.798 154.931 374.157C154.8 374.876 154.484 375.468 154.145 375.891C153.452 376.751 152.753 376.925 152.74 376.869C152.688 376.784 153.277 376.483 153.813 375.654C154.078 375.244 154.32 374.701 154.405 374.071C154.449 373.757 154.456 373.422 154.407 373.086C154.366 372.723 154.24 372.427 154.104 372.46C153.934 372.45 153.638 372.713 153.489 372.996C153.305 373.296 153.155 373.604 153.037 373.906C152.804 374.513 152.691 375.099 152.65 375.594C152.57 376.591 152.727 377.219 152.636 377.24Z" fill="#1A2E35"/>
<path d="M83.5984 194.598L88.6236 382.641L115.445 381.835L121.841 188.188L83.5984 194.598Z" fill="#1A2E35"/>
<path d="M139.349 187.869C139.349 187.869 159.262 267.585 159.873 281.177C160.484 294.769 155.612 379.725 155.612 379.725H129.352L131.545 282.979L111.599 201.107L116.427 188.287L139.349 187.869Z" fill="#1A2E35"/>
<path d="M123.142 197.658C123.151 197.658 123.154 197.745 123.153 197.913C123.15 198.108 123.144 198.354 123.138 198.658C123.112 199.351 123.076 200.308 123.031 201.523C122.916 204.049 122.751 207.636 122.549 212.053C122.092 220.976 121.464 233.239 120.771 246.784C120.021 260.333 119.343 272.595 118.85 281.516C118.581 285.93 118.364 289.515 118.211 292.038C118.127 293.252 118.061 294.208 118.013 294.898C117.987 295.203 117.966 295.446 117.95 295.642C117.932 295.81 117.919 295.896 117.911 295.896C117.902 295.895 117.898 295.809 117.899 295.641C117.903 295.445 117.908 295.2 117.914 294.896C117.94 294.205 117.976 293.247 118.021 292.032C118.137 289.508 118.301 285.92 118.503 281.503C118.96 272.581 119.588 260.316 120.282 246.764C121.031 233.219 121.71 220.957 122.203 212.035C122.471 207.622 122.688 204.036 122.841 201.513C122.926 200.301 122.992 199.344 123.04 198.654C123.065 198.35 123.087 198.106 123.104 197.91C123.121 197.743 123.134 197.657 123.142 197.658Z" fill="#375A64"/>
<path d="M120.198 85.6509C120.198 85.6509 129.941 134.003 130.082 147.628C130.223 161.253 135.007 187.868 135.007 187.868H92.7996L91.8887 114.202L88.8835 92.23L95.221 83.1919L120.198 85.6509Z" fill="#F5F5F5"/>
<path d="M120.707 87.0757C120.707 87.0757 130.777 90.032 133.439 93.7563C135.539 96.6947 138.371 152.313 138.371 152.313L142.692 201.3L138.467 200.904L132.504 182.567L120.707 87.0757Z" fill="#025CBD"/>
<path d="M133.439 93.7566L161.867 119.841L196.846 108.509L203.813 123.194L166.491 140.134C161.156 142.41 157.813 141.157 154.111 138.192L134.531 122.51L133.439 93.7566Z" fill="#025CBD"/>
<path d="M190.332 113.188C190.532 113.561 190.391 114.027 190.018 114.226C189.643 114.425 189.179 114.285 188.98 113.911C188.78 113.538 188.922 113.073 189.295 112.873C189.668 112.673 190.133 112.815 190.332 113.188Z" fill="#1A2E35"/>
<path d="M189.655 112.806C189.537 112.806 189.417 112.834 189.306 112.893C189.13 112.987 189.002 113.143 188.945 113.334C188.887 113.524 188.906 113.725 189 113.9C189.093 114.075 189.249 114.204 189.439 114.261C189.63 114.319 189.83 114.298 190.006 114.206C190.182 114.112 190.31 113.956 190.367 113.766C190.425 113.576 190.406 113.375 190.312 113.199C190.178 112.949 189.921 112.806 189.655 112.806ZM189.656 114.34C189.579 114.34 189.502 114.329 189.426 114.306C189.224 114.245 189.059 114.109 188.959 113.922C188.859 113.736 188.838 113.522 188.9 113.32C188.961 113.118 189.097 112.952 189.283 112.852C189.47 112.753 189.684 112.733 189.886 112.793C190.088 112.855 190.253 112.991 190.353 113.177C190.453 113.363 190.474 113.577 190.412 113.78C190.351 113.981 190.215 114.147 190.028 114.247C189.912 114.309 189.785 114.34 189.656 114.34Z" fill="#1A2E35"/>
<path d="M193.265 112.491C193.464 112.865 193.323 113.33 192.95 113.529C192.576 113.729 192.112 113.588 191.912 113.214C191.712 112.84 191.853 112.376 192.227 112.177C192.6 111.976 193.066 112.118 193.265 112.491Z" fill="#1A2E35"/>
<path d="M192.587 112.109C192.467 112.109 192.348 112.139 192.238 112.197C191.877 112.39 191.739 112.842 191.933 113.204C192.026 113.379 192.182 113.507 192.372 113.564C192.563 113.622 192.764 113.601 192.939 113.508C193.301 113.316 193.438 112.865 193.244 112.503C193.151 112.327 192.994 112.199 192.804 112.142C192.733 112.12 192.66 112.109 192.587 112.109ZM192.589 113.644C192.512 113.644 192.435 113.633 192.359 113.609C192.157 113.548 191.991 113.412 191.892 113.225C191.687 112.841 191.831 112.361 192.216 112.156C192.402 112.057 192.615 112.035 192.818 112.097C193.02 112.158 193.186 112.294 193.286 112.481C193.385 112.667 193.407 112.881 193.345 113.083C193.284 113.285 193.147 113.45 192.96 113.55C192.845 113.613 192.718 113.644 192.589 113.644Z" fill="#1A2E35"/>
<path d="M196.056 111.928C196.255 112.301 196.114 112.766 195.741 112.966C195.367 113.166 194.902 113.025 194.703 112.651C194.503 112.278 194.644 111.812 195.018 111.613C195.391 111.414 195.857 111.555 196.056 111.928Z" fill="#1A2E35"/>
<path d="M195.378 111.546C195.261 111.546 195.14 111.574 195.029 111.633C194.854 111.727 194.726 111.883 194.669 112.073C194.61 112.263 194.63 112.464 194.724 112.64C194.817 112.815 194.973 112.943 195.163 113.001C195.354 113.058 195.554 113.038 195.73 112.946C196.091 112.752 196.228 112.301 196.035 111.939C195.902 111.689 195.644 111.546 195.378 111.546ZM195.38 113.08C195.303 113.08 195.226 113.069 195.15 113.046C194.948 112.984 194.781 112.848 194.683 112.662C194.583 112.476 194.561 112.262 194.623 112.06C194.685 111.858 194.821 111.692 195.007 111.592C195.39 111.386 195.871 111.532 196.077 111.917C196.282 112.302 196.136 112.781 195.751 112.987C195.636 113.049 195.509 113.08 195.38 113.08Z" fill="#1A2E35"/>
<path d="M197.193 109.24L199.898 108.25L206.109 121.336L203.466 122.462L197.193 109.24Z" fill="#E1E1E1"/>
<path d="M134.349 104.064C134.384 104.064 134.437 104.585 134.513 105.526C134.618 106.554 134.754 107.895 134.92 109.51C135.31 112.957 135.832 117.56 136.407 122.648C136.976 127.783 137.429 132.44 137.641 135.823C137.754 137.513 137.802 138.884 137.814 139.832C137.815 140.781 137.799 141.304 137.765 141.305C137.731 141.305 137.683 140.783 137.623 139.84C137.554 138.897 137.452 137.533 137.296 135.85C136.996 132.482 136.489 127.835 135.921 122.702C135.353 117.57 134.853 112.919 134.576 109.543C134.434 107.856 134.356 106.486 134.322 105.538C134.305 104.589 134.316 104.065 134.349 104.064Z" fill="#1A2E35"/>
<path d="M140.559 110.59C140.689 110.628 139.892 113.766 138.779 117.6C137.665 121.433 136.657 124.51 136.528 124.473C136.398 124.435 137.195 121.297 138.308 117.462C139.422 113.629 140.43 110.552 140.559 110.59Z" fill="#1A2E35"/>
<path d="M161.566 128.651C161.514 128.677 161.217 128.227 160.936 127.408C160.654 126.592 160.431 125.392 160.513 124.066C160.599 122.739 160.969 121.577 161.351 120.802C161.731 120.024 162.082 119.615 162.131 119.647C162.269 119.715 161.14 121.543 161.001 124.096C160.82 126.646 161.711 128.602 161.566 128.651Z" fill="#1A2E35"/>
<path d="M158.313 158.867L161.953 159.148L160.506 174.327L156.996 173.927L158.313 158.867Z" fill="#E1E1E1"/>
<path d="M95.2278 84.2446L75.6137 96.7503C71.0125 99.9886 69.0798 105.862 70.8592 111.199L85.9058 158.476L80.4811 201.434L123.47 199.61L122.426 180.779L118.774 147.093C118.096 140.845 116.542 134.723 114.158 128.909L95.2278 84.2446Z" fill="#025CBD"/>
<path d="M74.7327 113.791L94.3543 154.845C95.9391 158.163 98.9396 160.583 102.517 161.43L156.96 174.327L158.348 158.477L116.788 142.846L95.8827 102.721C92.7018 96.6162 85.0295 94.4608 79.1348 98.0158C73.7213 101.279 71.7915 108.196 74.7327 113.791Z" fill="#025CBD"/>
<path d="M158.347 158.477C158.344 158.484 158.269 158.464 158.123 158.417C157.955 158.359 157.744 158.288 157.481 158.199C156.887 157.986 156.065 157.691 155.018 157.316C152.844 156.517 149.748 155.377 145.902 153.961C138.144 151.062 127.374 147.037 115.175 142.477L115.087 142.444L115.043 142.359C113.882 140.058 112.666 137.645 111.427 135.191C108.018 128.552 104.623 122.302 101.448 116.667C99.8614 113.849 98.3301 111.185 96.8825 108.7C96.1549 107.461 95.4509 106.264 94.775 105.112C94.4423 104.531 94.101 103.977 93.7438 103.456C93.4158 102.911 93.0134 102.44 92.6309 101.972C91.0836 100.102 89.1848 98.8855 87.4054 98.1786C85.6166 97.4708 83.9331 97.2621 82.5804 97.3185C79.8262 97.4163 78.5638 98.485 78.545 98.3976C78.5393 98.391 78.6164 98.3365 78.7725 98.235C78.9285 98.1354 79.156 97.9737 79.4944 97.8402C80.1495 97.5347 81.1901 97.2029 82.5719 97.1286C83.9462 97.0421 85.6664 97.2245 87.5041 97.9239C89.3324 98.6204 91.2932 99.848 92.8931 101.745C93.2889 102.221 93.7044 102.701 94.0446 103.253C94.4159 103.786 94.7637 104.343 95.0993 104.918C95.7836 106.066 96.4961 107.26 97.2331 108.495C98.6967 110.973 100.242 113.631 101.841 116.446C105.04 122.072 108.449 128.321 111.863 134.967C113.12 137.416 114.334 139.833 115.477 142.144L115.345 142.025C127.522 146.645 138.272 150.723 146.014 153.661C149.839 155.134 152.919 156.321 155.078 157.152C156.114 157.561 156.926 157.883 157.513 158.115C157.769 158.221 157.975 158.306 158.139 158.374C158.28 158.435 158.35 158.469 158.347 158.477Z" fill="#1A2E35"/>
<path d="M149.095 168.357C149.095 168.781 148.752 169.124 148.328 169.124C147.904 169.124 147.561 168.781 147.561 168.357C147.561 167.933 147.904 167.59 148.328 167.59C148.752 167.59 149.095 167.933 149.095 168.357Z" fill="#1A2E35"/>
<path d="M148.328 167.613C147.918 167.613 147.585 167.947 147.585 168.358C147.585 168.767 147.918 169.101 148.328 169.101C148.738 169.101 149.072 168.767 149.072 168.358C149.072 167.947 148.738 167.613 148.328 167.613ZM148.328 169.147C147.892 169.147 147.538 168.793 147.538 168.358C147.538 167.921 147.892 167.566 148.328 167.566C148.764 167.566 149.119 167.921 149.119 168.358C149.119 168.793 148.764 169.147 148.328 169.147Z" fill="#1A2E35"/>
<path d="M152.01 169.124C152.01 169.548 151.666 169.891 151.243 169.891C150.819 169.891 150.476 169.548 150.476 169.124C150.476 168.7 150.819 168.357 151.243 168.357C151.666 168.357 152.01 168.7 152.01 169.124Z" fill="#1A2E35"/>
<path d="M151.243 168.38C150.833 168.38 150.499 168.714 150.499 169.124C150.499 169.534 150.833 169.868 151.243 169.868C151.653 169.868 151.987 169.534 151.987 169.124C151.987 168.714 151.653 168.38 151.243 168.38ZM151.243 169.915C150.807 169.915 150.452 169.56 150.452 169.124C150.452 168.688 150.807 168.333 151.243 168.333C151.679 168.333 152.033 168.688 152.033 169.124C152.033 169.56 151.679 169.915 151.243 169.915Z" fill="#1A2E35"/>
<path d="M154.737 169.942C154.737 170.366 154.394 170.709 153.97 170.709C153.546 170.709 153.203 170.366 153.203 169.942C153.203 169.518 153.546 169.175 153.97 169.175C154.394 169.175 154.737 169.518 154.737 169.942Z" fill="#1A2E35"/>
<path d="M153.97 169.199C153.56 169.199 153.226 169.532 153.226 169.942C153.226 170.352 153.56 170.686 153.97 170.686C154.38 170.686 154.714 170.352 154.714 169.942C154.714 169.532 154.38 169.199 153.97 169.199ZM153.97 170.733C153.534 170.733 153.179 170.378 153.179 169.942C153.179 169.506 153.534 169.152 153.97 169.152C154.406 169.152 154.761 169.506 154.761 169.942C154.761 170.378 154.406 170.733 153.97 170.733Z" fill="#1A2E35"/>
<path d="M156.96 174.327C156.958 174.336 156.868 174.321 156.695 174.285C156.496 174.241 156.244 174.184 155.93 174.114C155.224 173.945 154.243 173.711 152.997 173.412C150.419 172.777 146.749 171.874 142.231 170.762C133.138 168.53 120.592 165.376 106.68 162.152C104.942 161.735 103.215 161.405 101.516 160.945C99.8309 160.481 98.1624 159.795 96.8623 158.621C95.5698 157.444 94.7379 155.939 94.0151 154.49C93.3148 153.028 92.6305 151.595 91.9631 150.198C89.3151 144.61 86.9294 139.575 84.9196 135.333C82.9438 131.119 81.3382 127.699 80.2112 125.294C79.6763 124.13 79.2552 123.214 78.9535 122.555C78.8228 122.26 78.7194 122.024 78.6367 121.837C78.5681 121.674 78.537 121.589 78.5446 121.586C78.5521 121.582 78.5991 121.66 78.6827 121.815C78.7767 121.997 78.8952 122.227 79.0418 122.513C79.3652 123.162 79.8136 124.065 80.3832 125.213C81.545 127.601 83.1966 130.999 85.2327 135.185C87.2687 139.412 89.6854 144.432 92.3682 150.002C93.0403 151.395 93.7293 152.823 94.4324 154.281C95.1525 155.715 95.9675 157.163 97.1838 158.265C98.4039 159.362 99.9925 160.022 101.647 160.476C103.308 160.925 105.052 161.259 106.789 161.675C120.711 164.9 133.242 168.108 142.314 170.426C146.818 171.602 150.475 172.556 153.044 173.227C154.28 173.564 155.254 173.828 155.955 174.018C156.263 174.108 156.511 174.18 156.707 174.236C156.877 174.288 156.962 174.319 156.96 174.327Z" fill="#1A2E35"/>
<path d="M112.988 171.755C113.007 171.783 112.775 171.976 112.34 172.303C111.903 172.627 111.262 173.085 110.453 173.626C108.834 174.697 106.528 176.15 103.69 177.142C100.848 178.134 98.046 178.265 96.1105 177.901C95.1405 177.728 94.3791 177.479 93.8771 177.258C93.3733 177.04 93.1148 176.88 93.1279 176.854C93.1618 176.766 94.255 177.312 96.1622 177.559C98.0563 177.825 100.76 177.646 103.53 176.679C106.301 175.711 108.608 174.326 110.267 173.334C111.923 172.327 112.949 171.694 112.988 171.755Z" fill="#1A2E35"/>
<path d="M115.368 177.205C115.384 177.201 115.43 177.323 115.504 177.559C115.585 177.794 115.666 178.15 115.754 178.615C115.918 179.54 116.008 180.926 115.716 182.601C115.408 184.26 114.689 186.218 113.272 187.984C111.876 189.758 109.725 191.211 107.219 191.919C104.709 192.613 102.115 192.484 100 191.692C97.874 190.915 96.244 189.614 95.1207 188.354C94.003 187.074 93.361 185.842 93.0226 184.964C92.8562 184.522 92.7425 184.177 92.6899 183.933C92.6297 183.692 92.6053 183.566 92.6222 183.561C92.7369 183.494 93.1223 185.662 95.3764 188.122C96.5016 189.317 98.1005 190.545 100.153 191.266C102.189 192.006 104.673 192.114 107.087 191.447C109.496 190.766 111.564 189.386 112.922 187.699C114.302 186.018 115.035 184.14 115.376 182.534C116.029 179.262 115.236 177.208 115.368 177.205Z" fill="#1A2E35"/>
<path d="M97.3401 46.8196L97.4641 81.8468C97.4848 87.8036 102.487 92.5299 108.435 92.214C113.986 91.9208 118.328 87.3157 118.303 81.7565C118.291 79.1198 118.286 76.9212 118.303 76.6495C118.303 76.6495 127.216 75.78 127.829 66.9515C128.125 62.6858 128.02 53.8498 127.832 45.857C127.63 37.2729 120.859 30.2878 112.286 29.799L111.433 29.7501C102.213 29.7633 97.0722 37.6019 97.3401 46.8196Z" fill="#C78976"/>
<path d="M118.325 76.5235C118.325 76.5235 112.716 76.6598 106.994 72.5934C106.994 72.5934 109.354 79.1067 118.215 78.8134L118.325 76.5235Z" fill="#BF654E"/>
<path d="M125.642 51.0514C125.627 51.7188 125.051 52.2574 124.353 52.2546C123.657 52.2527 123.103 51.7113 123.117 51.043C123.132 50.3756 123.709 49.837 124.405 49.8388C125.103 49.8407 125.656 50.384 125.642 51.0514Z" fill="#1A2E35"/>
<path d="M125.893 49.5601C125.728 49.7161 124.812 48.9538 123.454 48.8795C122.099 48.7864 121.063 49.4285 120.925 49.2536C120.857 49.1756 121.034 48.888 121.486 48.5975C121.93 48.307 122.676 48.0429 123.522 48.0946C124.367 48.1472 125.061 48.4988 125.451 48.841C125.85 49.185 125.974 49.4905 125.893 49.5601Z" fill="#1A2E35"/>
<path d="M112.453 50.9447C112.438 51.6121 111.861 52.1508 111.164 52.1479C110.467 52.1461 109.914 51.6046 109.928 50.9372C109.943 50.2689 110.52 49.7303 111.216 49.7321C111.913 49.734 112.468 50.2773 112.453 50.9447Z" fill="#1A2E35"/>
<path d="M112.38 49.2529C112.215 49.409 111.297 48.6466 109.941 48.5733C108.586 48.4802 107.55 49.1213 107.412 48.9474C107.344 48.8694 107.519 48.5818 107.973 48.2904C108.417 47.9999 109.163 47.7358 110.008 47.7875C110.853 47.841 111.547 48.1926 111.938 48.5338C112.336 48.8788 112.461 49.1843 112.38 49.2529Z" fill="#1A2E35"/>
<path d="M116.681 59.9254C116.679 59.8474 117.531 59.7496 118.908 59.6528C119.257 59.6368 119.589 59.587 119.66 59.3539C119.756 59.1076 119.633 58.7259 119.488 58.3133C119.209 57.456 118.919 56.5574 118.613 55.6155C117.404 51.7756 116.549 48.6266 116.704 48.5796C116.859 48.5316 117.966 51.6054 119.175 55.4453C119.465 56.391 119.742 57.2934 120.006 58.1563C120.114 58.5577 120.315 59.0173 120.108 59.5268C120 59.7806 119.735 59.9545 119.509 60.0015C119.284 60.057 119.088 60.0495 118.916 60.0495C117.535 60.0448 116.682 60.0034 116.681 59.9254Z" fill="#1A2E35"/>
<path d="M112.927 46.4373C112.772 46.7992 111.426 46.5473 109.823 46.6479C108.217 46.7165 106.906 47.1104 106.714 46.7672C106.629 46.6027 106.872 46.269 107.412 45.941C107.948 45.6139 108.788 45.3215 109.75 45.2689C110.712 45.22 111.579 45.4212 112.146 45.69C112.716 45.9588 112.994 46.2653 112.927 46.4373Z" fill="#1A2E35"/>
<path d="M125.778 46.3211C125.522 46.6153 124.605 46.2421 123.482 46.1631C122.36 46.0447 121.392 46.2515 121.192 45.9169C121.104 45.7552 121.273 45.4544 121.705 45.1865C122.132 44.9186 122.831 44.7202 123.603 44.7879C124.374 44.8565 125.027 45.1733 125.4 45.5117C125.78 45.8511 125.893 46.1763 125.778 46.3211Z" fill="#1A2E35"/>
<path d="M97.6883 53.4017C97.5417 53.3284 91.7212 51.2604 91.5699 57.3112C91.4186 63.361 97.5238 62.265 97.5389 62.092C97.5539 61.9191 97.6883 53.4017 97.6883 53.4017Z" fill="#C78976"/>
<path d="M95.7482 59.7536C95.7219 59.7339 95.641 59.825 95.4605 59.9021C95.2848 59.9773 94.9849 60.0243 94.6719 59.8984C94.0393 59.6483 93.526 58.619 93.5241 57.5286C93.5222 56.9768 93.651 56.4561 93.8569 56.0265C94.0524 55.5885 94.3466 55.2867 94.67 55.2378C94.9915 55.1711 95.2152 55.3694 95.2848 55.5424C95.3618 55.7135 95.3195 55.8329 95.3524 55.8441C95.3684 55.8592 95.484 55.7464 95.4417 55.4954C95.4201 55.3741 95.3524 55.2303 95.2133 55.11C95.0714 54.9878 94.8589 54.9229 94.6343 54.9408C94.1671 54.9615 93.7356 55.3807 93.51 55.8517C93.2581 56.3245 93.1002 56.9101 93.1021 57.5286C93.1105 58.7497 93.7065 59.9059 94.5741 60.1803C94.9971 60.3016 95.3553 60.1832 95.5423 60.044C95.7331 59.8993 95.7689 59.7649 95.7482 59.7536Z" fill="#BF654E"/>
<path d="M94.34 53.0058C95.2744 52.8356 96.8188 53.7766 97.1619 54.6611C97.506 55.5466 97.537 56.5289 97.8791 57.4134C98.2213 58.2989 99.0617 59.1299 99.997 58.9644C100.642 58.8497 101.131 58.2801 101.334 57.6578C101.538 57.0355 101.508 56.3644 101.463 55.7111C101.268 52.8695 100.835 50.0391 100.882 47.1919C100.931 44.3455 101.504 41.4174 103.134 39.0815C104.763 36.7475 107.604 35.1241 110.424 35.5133C112.293 35.7718 113.959 36.849 115.809 37.2166C118.002 37.6518 120.384 37.0051 122.055 35.5189C122.111 35.4691 122.222 35.392 122.353 35.3065C122.963 34.9089 123.27 34.1484 123.042 33.4566C122.965 33.2206 122.86 33.0035 122.719 32.8578C119.214 29.2256 112.602 27.8908 107.646 28.8412C102.689 29.7934 97.912 32.9819 95.5489 37.4412C93.1848 41.9006 93.4461 48.3058 94.34 53.0058Z" fill="#1A2E35"/>
<path d="M113.476 60.9902C113.697 60.977 113.7 62.4481 114.958 63.4915C116.215 64.5396 117.783 64.3742 117.794 64.5791C117.815 64.6721 117.445 64.8658 116.784 64.8836C116.134 64.9062 115.186 64.6966 114.416 64.0583C113.648 63.4182 113.318 62.5637 113.267 61.9602C113.211 61.3455 113.375 60.9817 113.476 60.9902Z" fill="#1A2E35"/>
<path d="M197.941 110.731C197.941 110.731 204.565 104.91 205.821 104.483C207.076 104.056 217.048 103.872 217.722 104.371C218.395 104.87 228.491 110.408 226.819 111.256C225.147 112.104 218.143 108.139 218.143 108.139L216.966 108.294C216.966 108.294 223.073 111.555 224.162 112.812C225.165 113.968 224.206 115.352 223.065 114.821C221.924 114.29 216.682 111.264 216.27 111.38C215.857 111.495 221.855 115.004 222.407 115.653C223.15 116.527 222.671 118.218 221.522 117.731C220.843 117.443 215.309 113.776 215.309 113.776C215.309 113.776 219.486 117.296 219.784 117.871C220.273 118.812 219.335 119.661 218.371 119.071C217.709 118.666 214.865 115.868 213.978 115.327C213.978 115.327 212.999 115.257 211.558 116.791C210.117 118.325 204.44 120.432 204.44 120.432L197.941 110.731Z" fill="#C78976"/>
<path d="M226.789 111.276C226.787 111.34 225.958 111.392 224.647 111.141C223.994 111.013 223.224 110.803 222.405 110.47C221.616 110.095 220.764 109.66 219.867 109.204C219.207 108.862 218.569 108.533 217.967 108.221L218.091 108.251C215.12 108.28 212.968 108.224 212.964 108.105C212.959 107.986 215.107 107.838 218.084 107.741L218.144 107.739L218.209 107.771C218.81 108.074 219.444 108.394 220.102 108.725C220.974 109.177 221.805 109.608 222.596 110.017C223.376 110.363 224.108 110.604 224.733 110.774C225.985 111.111 226.795 111.194 226.789 111.276Z" fill="#BF654E"/>
<path d="M200.406 112.415C200.849 113.248 201.976 113.469 202.9 113.273C203.823 113.077 204.653 112.574 205.56 112.311C208.273 111.528 211.289 112.978 213.961 112.065C214.333 111.938 214.752 111.665 214.707 111.274C214.665 110.911 214.258 110.73 213.91 110.619C210.94 109.674 207.969 108.727 205 107.781" fill="#C78976"/>
<path d="M205 107.781C205.011 107.746 205.364 107.821 205.995 107.99C206.625 108.156 207.53 108.415 208.648 108.745C209.807 109.097 211.125 109.496 212.562 109.933C212.93 110.047 213.307 110.164 213.691 110.283C214.041 110.421 214.558 110.447 214.895 111C215.05 111.284 214.953 111.674 214.755 111.874C214.566 112.084 214.342 112.202 214.114 112.292C213.673 112.439 213.23 112.547 212.769 112.593C210.922 112.779 209.246 112.351 207.739 112.321C206.986 112.293 206.274 112.347 205.641 112.52C205.006 112.692 204.43 112.969 203.872 113.168C202.766 113.625 201.671 113.546 201.085 113.189C200.475 112.837 200.383 112.409 200.406 112.415C200.448 112.382 200.604 112.747 201.177 113.003C201.746 113.266 202.692 113.292 203.735 112.817C204.266 112.603 204.835 112.302 205.519 112.095C206.203 111.887 206.966 111.815 207.751 111.83C209.32 111.841 211.001 112.242 212.709 112.063C213.133 112.022 213.547 111.918 213.926 111.796C214.292 111.664 214.54 111.402 214.424 111.227C214.328 111.017 213.918 110.887 213.536 110.768C213.155 110.643 212.779 110.521 212.412 110.401C210.987 109.925 209.682 109.489 208.533 109.105C207.431 108.729 206.542 108.415 205.931 108.187C205.321 107.959 204.987 107.817 205 107.781Z" fill="#BF654E"/>
<path d="M160.314 159.237L171.304 158.149C171.304 158.149 185.835 168.101 184.441 170.292C183.049 172.481 180.659 170.292 180.659 170.292C180.659 170.292 183.247 173.476 179.067 174.472C179.067 174.472 178.072 176.661 176.479 176.462L175.484 176.475C175.484 176.475 174.583 179.249 173.242 178.652C171.901 178.055 167.844 174.472 167.844 174.472L156.574 173.476L160.314 159.237Z" fill="#C78976"/>
<path d="M167.15 170.566C167.15 170.566 164.336 171.647 163.75 172.777C163.166 173.907 162.826 176.572 164.642 177.056C165.335 177.241 167.838 176.955 167.838 176.955L167.145 173.997C167.145 173.997 168.196 172.783 168.823 172.262C169.422 171.764 168.766 169.817 167.15 170.566Z" fill="#FFBF9D"/>
<path d="M170.318 172.07C170.318 172.07 167.504 173.151 166.918 174.281C166.333 175.41 166.721 177.308 168.536 177.792C169.23 177.978 171.439 177.694 171.439 177.694L171.144 177.12C170.574 176.01 170.329 175.112 171.333 174.372C171.389 174.33 171.949 173.805 171.99 173.766C172.543 173.245 171.934 171.32 170.318 172.07Z" fill="#FFBF9D"/>
<path d="M170.996 177.591C170.482 177.116 170.433 176.271 170.767 175.657C171.101 175.043 171.744 174.645 172.417 174.454C172.86 174.328 173.408 174.311 173.704 174.663C173.895 174.891 173.924 175.215 173.884 175.508C173.779 176.29 173.271 176.948 172.78 177.565C172.519 177.893 172.195 178.252 171.776 178.242C171.346 178.232 171.038 177.84 170.796 177.484" fill="#FFBF9D"/>
<path d="M111.599 88.9934L114.07 88.0581L116.213 91.8858L115.02 95.9701L112.5 96.5942L109.986 93.4283L111.599 88.9934Z" fill="#025CBD"/>
<path d="M112.499 96.5941C112.499 96.5941 115.697 114.181 118.363 126.554C118.363 126.554 120.549 136.852 121.435 139.228C122.423 141.879 125.464 145.844 125.464 145.844L128.559 147.042L126.669 129.659L115.019 95.9699L112.499 96.5941Z" fill="#025CBD"/>
<g opacity="0.399994">
<g opacity="0.399994">
<path opacity="0.399994" d="M111.599 88.9934L114.07 88.0581L116.213 91.8858L115.02 95.9701L112.5 96.5942L109.986 93.4283L111.599 88.9934Z" fill="black"/>
</g>
</g>
<g opacity="0.399994">
<g opacity="0.399994">
<path opacity="0.399994" d="M112.499 96.5941C112.499 96.5941 115.697 114.181 118.363 126.554C118.363 126.554 120.867 136.757 121.435 139.228C121.768 140.68 125.464 145.844 125.464 145.844L128.559 147.042L126.669 129.659L115.019 95.9699L112.499 96.5941Z" fill="black"/>
</g>
</g>
<path d="M96.7705 78.3055L111.599 88.9933L108.394 97.8105L94.8999 83.9164L96.7705 78.3055Z" fill="#F5F5F5"/>
<path d="M114.069 88.0579L118.215 78.8139L120.558 86.4382L117.302 94.4536L114.069 88.0579Z" fill="#F5F5F5"/>
<path d="M111.599 88.9933C111.624 89.0017 111.564 89.2395 111.433 89.671C111.266 90.1824 111.067 90.7934 110.832 91.5143C110.303 93.087 109.53 95.3016 108.608 97.8885L108.48 98.2476L108.223 97.9637C107.151 96.7812 105.985 95.4952 104.765 94.1501C102.08 91.1694 99.6687 88.4518 97.941 86.4684C97.1373 85.5303 96.4596 84.7398 95.9144 84.1034C95.4444 83.5375 95.1962 83.2141 95.2206 83.1916C95.246 83.169 95.5421 83.4491 96.0563 83.9765C96.6316 84.5837 97.3479 85.3404 98.1986 86.2372C99.9911 88.1614 102.444 90.8413 105.129 93.823C106.34 95.1747 107.498 96.4681 108.563 97.6572L108.178 97.7324C109.133 95.1578 109.964 92.9638 110.568 91.4185C110.851 90.7144 111.091 90.1184 111.292 89.6193C111.468 89.2038 111.575 88.9839 111.599 88.9933Z" fill="#1A2E35"/>
<path d="M120.559 86.4386C120.621 86.4639 120.352 87.2893 119.867 88.6015C119.381 89.9147 118.679 91.7157 117.876 93.6935C117.756 93.9849 117.639 94.2716 117.527 94.5451L117.285 95.1401L117.073 94.5348C115.817 90.9289 113.992 88.5404 114.116 88.4614C114.161 88.4267 114.67 88.9784 115.354 90.004C116.038 91.0267 116.876 92.5429 117.532 94.3722L117.077 94.3618C117.188 94.0892 117.304 93.8016 117.422 93.5092C118.226 91.5315 118.978 89.7511 119.545 88.4718C120.113 87.1915 120.496 86.4132 120.559 86.4386Z" fill="#1A2E35"/>
<path d="M309.077 364.784L314.797 387.48L324.497 404.126C325.196 405.327 324.733 406.868 323.489 407.483C322.792 407.828 321.978 407.817 321.294 407.448C316.938 405.098 300.959 396.373 300.633 394.689C300.256 392.738 293.011 371.149 293.011 371.149L309.077 364.784Z" fill="#025CBD"/>
<g opacity="0.600006">
<g opacity="0.600006">
<path opacity="0.600006" d="M323.489 407.483L300.212 393.168L300.477 394.123C300.705 394.949 301.216 395.67 301.926 396.15C303.823 397.438 309.141 400.878 321.226 407.468C321.928 407.851 322.781 407.857 323.489 407.483Z" fill="white"/>
</g>
</g>
<g opacity="0.600006">
<g opacity="0.600006">
<path opacity="0.600006" d="M302.83 384.61C303.504 384.845 303.924 385.648 303.717 386.33C303.511 387.014 302.696 387.449 302.02 387.225C301.342 387.003 300.808 386.053 301.089 385.399C301.371 384.744 302.354 384.285 302.958 384.663" fill="white"/>
</g>
</g>
<path d="M315.607 399.052C315.752 399.079 315.935 397.757 317.101 396.75C318.236 395.709 319.571 395.682 319.561 395.536C319.564 395.475 319.23 395.379 318.682 395.45C318.138 395.517 317.395 395.803 316.76 396.367C316.125 396.933 315.755 397.637 315.625 398.17C315.49 398.706 315.547 399.049 315.607 399.052Z" fill="#1A2E35"/>
<path d="M318.05 401.628C318.184 401.696 318.705 400.762 319.779 400.106C320.839 399.425 321.906 399.364 321.904 399.213C321.937 399.08 320.719 398.902 319.507 399.671C318.285 400.427 317.914 401.601 318.05 401.628Z" fill="#1A2E35"/>
<path d="M311.546 396.006C311.681 396.085 312.476 394.645 314.058 393.477C315.621 392.284 317.224 391.923 317.188 391.772C317.192 391.641 315.428 391.792 313.748 393.066C312.056 394.323 311.419 395.974 311.546 396.006Z" fill="#1A2E35"/>
<path d="M309.231 389.253C309.328 389.371 310.43 388.506 312.036 387.999C313.636 387.471 315.035 387.526 315.045 387.373C315.077 387.245 313.598 386.945 311.878 387.51C310.154 388.058 309.13 389.167 309.231 389.253Z" fill="#1A2E35"/>
<path d="M307.383 382.633C307.489 382.743 308.534 381.646 310.269 381.25C311.995 380.816 313.424 381.321 313.468 381.175C313.492 381.117 313.167 380.902 312.564 380.745C311.965 380.587 311.081 380.529 310.148 380.751C309.218 380.975 308.456 381.428 307.994 381.84C307.528 382.254 307.336 382.592 307.383 382.633Z" fill="#1A2E35"/>
<path d="M309.881 380.001C309.909 379.993 309.876 379.676 309.675 379.139C309.474 378.607 309.093 377.846 308.379 377.092C308.021 376.74 307.617 376.271 306.905 376.148C306.55 376.085 306.1 376.272 305.915 376.645C305.73 377.008 305.749 377.402 305.84 377.762C306.259 379.188 307.871 380.232 309.54 379.993C311.205 379.723 312.414 378.395 312.714 376.982C312.765 376.622 312.754 376.203 312.473 375.87C312.195 375.534 311.694 375.508 311.387 375.652C310.744 375.937 310.428 376.44 310.113 376.836C309.509 377.675 309.21 378.465 309.058 379.014C308.908 379.566 308.898 379.883 308.927 379.889C309.023 379.927 309.192 378.623 310.404 377.055C310.716 376.685 311.068 376.228 311.538 376.051C311.767 375.962 311.995 375.999 312.131 376.166C312.268 376.324 312.299 376.62 312.247 376.905C311.984 378.066 310.876 379.278 309.464 379.485C308.06 379.701 306.645 378.78 306.297 377.635C306.217 377.358 306.214 377.06 306.315 376.853C306.417 376.652 306.627 376.545 306.858 376.573C307.347 376.627 307.772 377.02 308.121 377.348C309.529 378.741 309.786 380.052 309.881 380.001Z" fill="#1A2E35"/>
<path d="M238.195 369.02L239.406 386.511C239.406 386.511 222.034 393.619 221.943 396.873L255.944 395.741L255.173 368.409L238.195 369.02Z" fill="#025CBD"/>
<path d="M249.871 384.689C250.536 384.847 251.015 385.571 250.884 386.241C250.753 386.911 250.021 387.405 249.354 387.259C248.687 387.112 248.085 386.26 248.29 385.609C248.495 384.958 249.387 384.426 249.999 384.727" fill="#E1E1E1"/>
<path d="M255.944 395.741L255.759 392.989L223.228 395.103C223.228 395.103 221.736 395.813 221.943 396.873L255.944 395.741Z" fill="#E1E1E1"/>
<path d="M238.85 386.358C238.861 386.523 239.693 386.571 240.528 387.078C241.377 387.562 241.821 388.267 241.972 388.196C242.123 388.16 241.844 387.174 240.822 386.578C239.806 385.975 238.809 386.206 238.85 386.358Z" fill="#1A2E35"/>
<path d="M235.333 387.951C235.301 388.113 236.028 388.372 236.616 389.055C237.224 389.721 237.39 390.476 237.556 390.463C237.713 390.484 237.795 389.507 237.049 388.672C236.31 387.829 235.332 387.792 235.333 387.951Z" fill="#1A2E35"/>
<path d="M233.45 392.287C233.601 392.317 233.805 391.481 233.348 390.585C232.898 389.686 232.103 389.354 232.038 389.494C231.947 389.634 232.468 390.105 232.832 390.846C233.213 391.577 233.283 392.276 233.45 392.287Z" fill="#1A2E35"/>
<path d="M239.016 382.341C239.09 382.489 239.844 382.235 240.785 382.267C241.726 382.281 242.467 382.571 242.549 382.426C242.641 382.303 241.908 381.712 240.798 381.689C239.692 381.657 238.93 382.212 239.016 382.341Z" fill="#1A2E35"/>
<path d="M238.836 378.807C238.837 378.875 239.496 378.956 240.54 378.742C241.058 378.634 241.668 378.442 242.303 378.134C242.62 377.98 242.943 377.798 243.263 377.584C243.416 377.477 243.599 377.37 243.764 377.166C243.943 376.986 244.032 376.543 243.811 376.28C243.629 376.024 243.317 375.923 243.071 375.926C242.819 375.926 242.618 375.982 242.435 376.035C242.06 376.138 241.709 376.276 241.389 376.433C240.748 376.75 240.233 377.142 239.853 377.516C239.088 378.273 238.839 378.902 238.897 378.932C238.974 378.983 239.34 378.451 240.123 377.821C240.513 377.508 241.014 377.181 241.613 376.915C241.913 376.785 242.237 376.67 242.581 376.582C242.938 376.475 243.244 376.462 243.343 376.619C243.378 376.679 243.383 376.704 243.312 376.811C243.237 376.911 243.094 377.011 242.943 377.116C242.649 377.322 242.352 377.503 242.061 377.66C241.478 377.974 240.917 378.195 240.435 378.346C239.471 378.651 238.831 378.716 238.836 378.807Z" fill="#1A2E35"/>
<path d="M239.06 379.038C239.119 379.061 239.431 378.455 239.455 377.378C239.466 376.844 239.389 376.199 239.16 375.521C239.044 375.183 238.891 374.839 238.692 374.502C238.482 374.173 238.224 373.731 237.578 373.679C237.24 373.677 236.97 373.949 236.883 374.177C236.777 374.41 236.762 374.609 236.729 374.807C236.679 375.207 236.699 375.596 236.766 375.954C236.896 376.674 237.212 377.266 237.552 377.688C238.245 378.548 238.945 378.723 238.957 378.666C239.009 378.581 238.419 378.279 237.883 377.45C237.619 377.041 237.378 376.498 237.291 375.868C237.247 375.554 237.24 375.22 237.289 374.883C237.331 374.519 237.457 374.224 237.593 374.256C237.762 374.248 238.059 374.511 238.208 374.794C238.392 375.094 238.541 375.401 238.66 375.703C238.893 376.311 239.006 376.896 239.046 377.391C239.126 378.388 238.969 379.015 239.06 379.038Z" fill="#1A2E35"/>
<path d="M228.918 178.736L234.387 382.298L261.209 381.493L259.148 206.78L293.326 386.351L317.551 380.027L286.277 179.124L228.918 178.736Z" fill="#1A2E35"/>
<path d="M243.614 382.567C243.479 382.567 243.369 340.371 243.369 288.331C243.369 236.272 243.479 194.084 243.614 194.084C243.75 194.084 243.86 236.272 243.86 288.331C243.86 340.371 243.75 382.567 243.614 382.567Z" fill="#375A64"/>
<path d="M300.979 386.288C300.846 386.308 294.58 345.851 286.985 295.937C279.389 246.004 273.342 205.522 273.475 205.502C273.609 205.482 279.873 245.931 287.47 295.863C295.064 345.778 301.114 386.268 300.979 386.288Z" fill="#375A64"/>
<path d="M267.351 51.4409C268.147 49.2705 269.186 47.2325 269.618 44.9624C269.94 43.2723 270.446 40.7362 269.767 39.1561C269.088 37.5759 267.448 36.0625 265.373 36.4911C264.855 33.1485 263.077 30.4347 259.694 28.7944C256.65 27.3186 253.66 26.5967 250.286 26.3495C249.267 26.2752 247.677 26.341 246.76 26.7922C245.843 27.2425 244.991 28.1505 244.641 29.0774C242.868 27.673 240.315 27.266 237.728 27.97C235.142 28.6732 232.188 30.07 231.053 32.499C230.351 34.002 230.09 35.8613 230.848 38.2358C231.352 39.8169 233.023 42.2975 234.579 41.7194" fill="#1A2E35"/>
<path d="M254.275 95.3451C247.731 95.2088 242.591 89.6938 242.918 83.1571C243.08 79.9075 243.231 77.2877 243.231 77.2877C243.231 77.2877 234.381 76.1381 234.05 67.3265C233.721 58.515 234.741 38.2363 234.741 38.2363C244.834 33.5956 256.648 34.78 265.62 41.3336L266.951 42.3065L266.126 83.9655C265.999 90.3819 260.691 95.4786 254.275 95.3451Z" fill="#FFBF9D"/>
<path d="M243.213 77.1609C243.213 77.1609 248.794 77.4739 254.623 73.6068C254.623 73.6068 251.903 80.4453 243.088 79.8719L243.213 77.1609Z" fill="#FF9A6C"/>
<path d="M266.094 51.4636C266.242 51.3949 272.106 49.5206 272.065 55.5516C272.023 61.5827 265.976 60.2967 265.967 60.1238C265.957 59.9508 266.094 51.4636 266.094 51.4636Z" fill="#FFBF9D"/>
<path d="M267.825 57.8517C267.851 57.832 267.929 57.926 268.107 58.0087C268.279 58.0886 268.577 58.145 268.892 58.0294C269.53 57.8 270.074 56.7923 270.111 55.7057C270.13 55.1568 270.019 54.6332 269.827 54.1998C269.645 53.7571 269.363 53.4469 269.042 53.3877C268.723 53.3115 268.495 53.5024 268.421 53.6716C268.338 53.8389 268.375 53.9601 268.344 53.9705C268.327 53.9855 268.215 53.868 268.266 53.6199C268.291 53.5005 268.362 53.3585 268.505 53.2429C268.651 53.1264 268.863 53.0681 269.087 53.0935C269.552 53.1292 269.967 53.5597 270.178 54.0363C270.414 54.5147 270.552 55.1032 270.531 55.7198C270.484 56.9343 269.853 58.067 268.98 58.3142C268.555 58.4214 268.202 58.2907 268.02 58.1469C267.835 57.9974 267.804 57.8621 267.825 57.8517Z" fill="#FF9A6C"/>
<path d="M237.03 52.0023C237.023 52.6678 237.581 53.2215 238.275 53.2421C238.969 53.2619 239.538 52.7402 239.545 52.0747C239.552 51.4091 238.994 50.8536 238.301 50.8338C237.605 50.8141 237.036 51.3367 237.03 52.0023Z" fill="#1A2E35"/>
<path d="M236.72 50.5938C236.88 50.7536 237.816 50.0242 239.17 49.9941C240.524 49.9443 241.535 50.6155 241.677 50.4463C241.749 50.3711 241.582 50.0787 241.14 49.7742C240.707 49.4715 239.973 49.1838 239.129 49.2092C238.286 49.2355 237.583 49.5636 237.183 49.8917C236.775 50.2216 236.641 50.5224 236.72 50.5938Z" fill="#1A2E35"/>
<path d="M250.304 51.9876C250.297 52.6531 250.855 53.2068 251.549 53.2275C252.243 53.2472 252.812 52.7255 252.818 52.06C252.826 51.3945 252.267 50.839 251.575 50.8192C250.879 50.7995 250.31 51.3221 250.304 51.9876Z" fill="#1A2E35"/>
<path d="M250.041 50.5125C250.201 50.6733 251.138 49.9438 252.492 49.9128C253.844 49.8639 254.856 50.5351 254.999 50.3659C255.069 50.2907 254.905 49.9984 254.462 49.6938C254.028 49.3902 253.293 49.1035 252.45 49.1279C251.606 49.1542 250.905 49.4823 250.504 49.8104C250.097 50.1403 249.962 50.4411 250.041 50.5125Z" fill="#1A2E35"/>
<path d="M245.377 60.6812C245.382 60.6041 244.536 60.48 243.166 60.34C242.82 60.3127 242.491 60.2516 242.426 60.0176C242.34 59.7694 242.474 59.3934 242.632 58.9864C242.936 58.1413 243.254 57.2558 243.589 56.3271C244.915 52.5418 245.867 49.4322 245.714 49.3805C245.56 49.3279 244.361 52.3547 243.035 56.1391C242.716 57.0735 242.411 57.9627 242.122 58.8144C242.001 59.2101 241.787 59.6622 241.976 60.1755C242.076 60.4321 242.334 60.6135 242.557 60.6671C242.781 60.7291 242.975 60.7282 243.147 60.7348C244.522 60.7743 245.374 60.7583 245.377 60.6812Z" fill="#1A2E35"/>
<path d="M249.387 61.5183C249.167 61.5108 249.201 62.9819 247.968 64.0563C246.739 65.1354 245.167 65.0095 245.16 65.2153C245.142 65.3084 245.517 65.4926 246.178 65.4936C246.828 65.4992 247.77 65.267 248.525 64.61C249.276 63.9501 249.585 63.0881 249.62 62.4837C249.66 61.868 249.487 61.507 249.387 61.5183Z" fill="#1A2E35"/>
<path d="M249.558 45.2128C249.7 45.5776 251.049 45.3698 252.642 45.5212C254.239 45.6405 255.533 46.0739 255.735 45.7383C255.826 45.5776 255.594 45.2363 255.067 44.8932C254.544 44.5501 253.716 44.2324 252.759 44.1506C251.803 44.0698 250.933 44.2428 250.361 44.4928C249.782 44.7428 249.496 45.0389 249.558 45.2128Z" fill="#1A2E35"/>
<path d="M237.12 46.661C237.366 46.9628 238.29 46.6206 239.412 46.5773C240.533 46.4946 241.489 46.7315 241.7 46.4044C241.792 46.2455 241.635 45.941 241.212 45.6608C240.796 45.3807 240.106 45.1608 239.335 45.2031C238.564 45.2472 237.904 45.5424 237.522 45.8676C237.133 46.1929 237.011 46.5134 237.12 46.661Z" fill="#1A2E35"/>
<path d="M267.415 42.9998C267.36 45.5707 268.005 48.416 267.618 50.9512C267.559 51.3338 266.597 52.3763 266.519 52.7551C266.056 55.0017 265.154 55.9821 263.769 53.712C263.236 52.8378 262.844 50.3825 262.622 49.3899C262.02 46.6902 261.417 43.9905 260.815 41.2908C258.736 42.3239 256.472 43.1314 254.154 43.0486C251.835 42.9659 249.451 41.8511 248.341 39.8132C247.289 41.665 245.364 42.9951 243.26 43.325C241.156 43.655 238.917 42.9781 237.349 41.5371C236.592 42.8137 234.731 43.2113 233.443 42.4724C232.156 41.7336 231.547 40.0576 231.913 38.6194C232.466 36.4536 234.741 35.2288 236.869 34.5445C245.189 31.8673 254.509 33.5678 262.155 37.8016C263.272 38.4182 264.372 39.0988 265.255 40.0171C266.14 40.9365 267.36 42.0118 267.43 43.2855" fill="#1A2E35"/>
<path d="M261.079 42.2956C261.099 42.3802 261.654 42.1828 262.447 42.5146C262.839 42.6754 263.275 42.948 263.705 43.3249C264.133 43.6981 264.562 44.1916 265.075 44.6691C265.583 45.1494 266.167 45.564 266.788 45.7454C267.408 45.9334 268.002 45.893 268.459 45.7689C269.392 45.5076 269.761 44.9943 269.716 44.9624C269.666 44.8928 269.227 45.2716 268.382 45.4108C267.966 45.4784 267.45 45.4737 266.935 45.2923C266.418 45.1156 265.914 44.749 265.427 44.2912C264.937 43.8353 264.496 43.3475 264.01 42.9592C263.528 42.5729 263.024 42.3031 262.566 42.1687C261.619 41.8905 261.036 42.2542 261.079 42.2956Z" fill="#375A64"/>
<path d="M262.11 44.9305C262.12 45.0029 262.561 44.9418 263.065 45.3554C263.313 45.5499 263.551 45.8592 263.832 46.2267C264.108 46.5952 264.496 47.006 264.98 47.2927C265.944 47.8971 267.015 47.9864 267.724 47.8746C268.448 47.7655 268.827 47.4976 268.801 47.444C268.771 47.367 268.36 47.5014 267.692 47.5108C267.035 47.523 266.099 47.3848 265.251 46.8537C264.391 46.3668 263.962 45.4531 263.272 45.0536C262.599 44.6419 262.064 44.8684 262.11 44.9305Z" fill="#375A64"/>
<path d="M238.857 27.7881C238.858 27.7609 238.573 27.7148 238.084 27.8605C237.603 28.0062 236.924 28.386 236.384 29.137C235.304 30.6486 235.057 33.3351 235.893 35.9342C236.74 38.5756 238.668 40.3945 240.209 41.2424C240.983 41.6889 241.664 41.9323 242.14 42.0658C242.616 42.2012 242.892 42.2218 242.898 42.1936C242.929 42.1034 241.851 41.8618 240.401 40.9303C238.958 40.0279 237.187 38.2738 236.383 35.7716C235.587 33.3088 235.779 30.7482 236.687 29.342C237.139 28.636 237.728 28.2393 238.154 28.0485C238.588 27.8568 238.862 27.8304 238.857 27.7881Z" fill="#375A64"/>
<path d="M231.56 31.4476C231.502 31.4494 231.447 32.1056 231.635 33.1471C231.818 34.1839 232.301 35.5958 233.197 36.9484C234.1 38.2992 235.215 39.29 236.1 39.8606C236.987 40.4358 237.613 40.6398 237.638 40.5862C237.732 40.4499 235.345 39.2937 233.628 36.6617C231.866 34.0617 231.722 31.4137 231.56 31.4476Z" fill="#375A64"/>
<path d="M182.945 154.29L170.047 154.943C168.403 155.027 167.117 156.397 167.151 158.044C167.212 160.989 167.709 165.024 170.006 164.641L171.476 158.219L182.18 167.664C183.262 168.644 184.598 169.298 186.037 169.553L188.551 169.293L182.945 154.29Z" fill="#FFBF9D"/>
<path d="M244.624 85.2098L237.882 87.4366L234.538 143.419V193.073L275.926 197.658L276.407 126.047L273.733 90.407L267.412 82.8522L244.624 85.2098Z" fill="#E1E1E1"/>
<path d="M242.55 87.8897V82.465L267.145 79.0406L266.157 91.5388L260.504 101.335L251.268 101.851L244.593 97.7277L242.55 87.8897Z" fill="#E1E1E1"/>
<path d="M244.753 87.2556C244.617 87.25 244.555 86.1398 244.614 84.7768C244.672 83.4129 244.829 82.3121 244.964 82.3178C245.099 82.3234 245.162 83.4336 245.102 84.7975C245.045 86.1605 244.888 87.2612 244.753 87.2556Z" fill="#1A2E35"/>
<path d="M250.904 86.809C250.769 86.8006 250.732 85.5598 250.821 84.0379C250.911 82.5151 251.092 81.2875 251.228 81.295C251.362 81.3035 251.399 82.5433 251.31 84.0671C251.221 85.5889 251.04 86.8166 250.904 86.809Z" fill="#1A2E35"/>
<path d="M256.852 86.1855C256.718 86.1761 256.705 84.8638 256.823 83.2546C256.941 81.6462 257.146 80.35 257.281 80.3603C257.416 80.3697 257.429 81.682 257.31 83.2912C257.193 84.8996 256.988 86.1958 256.852 86.1855Z" fill="#1A2E35"/>
<path d="M262.564 85.248C262.431 85.2537 262.276 84.0101 262.349 82.4722C262.418 80.9344 262.684 79.7105 262.816 79.7274C262.952 79.7453 262.904 80.9795 262.837 82.4948C262.766 84.0091 262.701 85.2433 262.564 85.248Z" fill="#1A2E35"/>
<path d="M259.833 108.912C259.864 108.926 259.746 109.252 259.507 109.832C259.269 110.411 258.9 111.238 258.42 112.251C257.463 114.276 256.039 117.026 254.293 119.965C252.544 122.905 250.807 125.47 249.486 127.278C248.826 128.182 248.276 128.903 247.88 129.388C247.485 129.875 247.255 130.134 247.228 130.114C247.169 130.07 247.957 128.933 249.202 127.079C250.448 125.226 252.132 122.642 253.872 119.715C255.611 116.788 257.077 114.075 258.11 112.096C259.145 110.117 259.767 108.882 259.833 108.912Z" fill="#1A2E35"/>
<path d="M267.284 81.9809L273.962 85.1967L286.853 88.3494C292.515 89.3327 296.401 94.5976 295.669 100.297L288.919 152.945L296.976 203.985L265.018 203.034L263.143 184.047V131.409L267.284 81.9809Z" fill="#375A64"/>
<path d="M263.143 143.543C263.126 143.54 263.159 143.315 263.237 142.891C263.329 142.42 263.45 141.805 263.599 141.04C263.947 139.383 264.431 137.078 265.023 134.255C266.283 128.486 268.002 120.61 269.901 111.908C270.435 109.51 270.954 107.176 271.452 104.937L271.512 105.154C270.757 104.363 270.018 103.592 269.297 102.837L269.175 102.708L269.266 102.557C270.591 100.353 271.836 98.2824 272.984 96.3733L272.972 96.5584C271.287 92.476 269.884 89.0723 268.878 86.632C268.413 85.4711 268.042 84.5415 267.765 83.8515C267.515 83.2076 267.392 82.8608 267.412 82.8523C267.432 82.8438 267.593 83.1747 267.88 83.8026C268.182 84.4823 268.589 85.3978 269.096 86.5399C270.142 88.9642 271.6 92.3435 273.35 96.3986L273.39 96.4926L273.338 96.5838C272.204 98.5014 270.973 100.581 269.664 102.794L269.632 102.515C270.357 103.266 271.098 104.036 271.857 104.823L271.945 104.914L271.918 105.04C271.424 107.279 270.909 109.615 270.378 112.014C268.425 120.704 266.656 128.569 265.361 134.33C264.706 137.139 264.171 139.432 263.786 141.082C263.598 141.838 263.449 142.446 263.333 142.913C263.224 143.33 263.16 143.547 263.143 143.543Z" fill="#1A2E35"/>
<path d="M183.491 152.169L211.768 136.405L225.468 99.4559C227.382 94.2944 231.353 90.1593 236.435 88.0405L240.072 86.5234L240.089 183.811L240.818 206.858L225.497 202.269L233.311 155.947L230.609 133.147L227.925 144.178C226.966 148.121 224.447 151.507 220.946 153.559L191.511 168.847L183.491 152.169Z" fill="#375A64"/>
<path d="M183.835 152.885L181.455 153.594L188.15 169.553L191.269 168.344L183.835 152.885Z" fill="#E1E1E1"/>
<path d="M216.882 142.964C216.738 143.011 216.251 141.147 214.767 139.386C213.308 137.602 211.567 136.781 211.639 136.648C211.66 136.528 213.595 137.187 215.143 139.073C216.711 140.942 217.004 142.966 216.882 142.964Z" fill="#1A2E35"/>
<path d="M186.882 152.374C186.912 152.438 186.743 152.565 186.726 152.838C186.697 153.121 186.892 153.428 187.262 153.314C187.635 153.21 187.633 152.846 187.456 152.624C187.293 152.403 187.083 152.388 187.073 152.317C187.04 152.264 187.336 152.107 187.695 152.374C187.856 152.501 188.029 152.731 188.017 153.056C188.009 153.39 187.727 153.696 187.4 153.784C187.077 153.886 186.676 153.782 186.489 153.506C186.302 153.239 186.323 152.952 186.39 152.757C186.548 152.339 186.881 152.311 186.882 152.374Z" fill="#1A2E35"/>
<path d="M189.164 151.412C189.194 151.476 189.025 151.604 189.008 151.876C188.979 152.159 189.174 152.466 189.544 152.353C189.917 152.247 189.915 151.884 189.738 151.662C189.575 151.441 189.364 151.427 189.355 151.355C189.322 151.302 189.617 151.145 189.976 151.412C190.138 151.539 190.311 151.769 190.299 152.095C190.291 152.428 190.009 152.733 189.682 152.822C189.359 152.924 188.957 152.821 188.77 152.545C188.584 152.277 188.605 151.99 188.672 151.795C188.83 151.377 189.162 151.349 189.164 151.412Z" fill="#1A2E35"/>
<path d="M240.072 145.046C240.055 145.048 240.014 144.841 239.948 144.445C239.881 143.998 239.795 143.423 239.689 142.713C239.475 141.144 239.181 138.977 238.821 136.326C238.129 130.874 237.185 123.444 236.143 115.234C235.999 114.068 235.858 112.917 235.718 111.788L235.71 111.725L235.734 111.669C236.446 109.856 237.137 108.1 237.799 106.418L237.803 106.598C237.088 104.965 236.406 103.406 235.763 101.938L235.732 101.867L235.752 101.795C237.004 97.2664 238.057 93.4603 238.814 90.7202C239.188 89.4268 239.487 88.3862 239.71 87.6135C239.925 86.8973 240.05 86.5175 240.072 86.5231C240.095 86.5297 240.014 86.9207 239.84 87.6474C239.646 88.4295 239.386 89.4794 239.061 90.786C238.344 93.5374 237.35 97.3604 236.168 101.906L236.157 101.764C236.81 103.228 237.504 104.782 238.23 106.409L238.269 106.497L238.233 106.588C237.578 108.272 236.893 110.031 236.186 111.846L236.201 111.727C236.341 112.857 236.484 114.008 236.629 115.174C237.616 123.391 238.509 130.827 239.164 136.284C239.461 138.942 239.702 141.116 239.877 142.689C239.946 143.405 240.003 143.983 240.047 144.434C240.08 144.832 240.09 145.044 240.072 145.046Z" fill="#1A2E35"/>
<path d="M233.27 156.218C233.253 156.219 233.22 156.061 233.172 155.758C233.123 155.398 233.062 154.96 232.989 154.428C232.837 153.198 232.633 151.544 232.386 149.533C231.885 145.399 231.182 139.69 230.338 133.393C229.491 127.095 228.663 121.403 228.055 117.283C227.764 115.278 227.524 113.629 227.345 112.402C227.275 111.871 227.219 111.431 227.171 111.071C227.137 110.766 227.127 110.605 227.143 110.602C227.16 110.599 227.203 110.755 227.268 111.055C227.339 111.411 227.428 111.846 227.533 112.371C227.754 113.515 228.049 115.174 228.397 117.228C229.092 121.337 229.976 127.026 230.823 133.328C231.669 139.629 232.318 145.349 232.73 149.495C232.937 151.568 233.09 153.247 233.179 154.409C233.215 154.944 233.246 155.385 233.271 155.748C233.287 156.055 233.287 156.216 233.27 156.218Z" fill="#1A2E35"/>
<path d="M229.362 190.801C229.405 190.778 229.518 191.161 230.017 191.592C230.498 192.003 231.465 192.44 232.597 192.17C233.723 191.906 234.828 190.856 235.396 189.417C235.983 187.973 236.053 186.197 236.185 184.36C236.3 182.534 236.257 180.76 235.661 179.318C235.086 177.868 233.972 176.906 233.099 176.081C232.202 175.264 231.513 174.531 231.142 173.949C230.763 173.371 230.657 172.999 230.679 172.991C230.718 172.971 230.883 173.311 231.296 173.838C231.703 174.371 232.404 175.039 233.331 175.823C234.224 176.612 235.426 177.584 236.078 179.146C236.741 180.688 236.789 182.542 236.673 184.389C236.539 186.227 236.465 188.043 235.812 189.589C235.181 191.123 233.949 192.255 232.673 192.507C231.389 192.762 230.37 192.22 229.888 191.732C229.637 191.483 229.507 191.237 229.43 191.072C229.367 190.9 229.346 190.807 229.362 190.801Z" fill="#1A2E35"/>
<path d="M218.857 154.29C218.857 154.29 219.77 143.51 228.33 142.512C228.33 142.512 228.488 151.297 218.857 154.29Z" fill="#1A2E35"/>
<path d="M264.618 194.663C265.179 195.037 289.477 210.925 289.477 210.925L292.281 208.681L293.606 172.233L269.931 154.29L266.674 155.412L264.618 194.663Z" fill="#025CBD"/>
<path d="M269.668 154.807L270.638 194.255H265.416L267.165 155.588L269.668 154.807Z" fill="#E1E1E1"/>
<path d="M277.491 203.308C277.491 203.308 278.044 205.052 280.295 205.216C280.366 205.221 280.434 205.273 280.5 205.387C281.006 206.248 281.865 206.862 282.864 206.857C283.637 206.854 284.566 206.675 285.529 206.088C286.828 205.297 289.143 200.108 289.143 200.108L294.625 187.896L285.405 185.404L273.691 189.054C273.691 189.267 270.95 200.356 270.95 200.356C270.95 200.356 273.171 200.979 274.241 198.612C275.312 196.244 276.308 194.743 276.308 194.743L277.181 199.734L273.85 200.873C273.85 200.873 273.446 202.719 275.276 203.405L277.491 203.308Z" fill="#FFBF9D"/>
<path d="M281.625 117.559L296.976 145.814L284.483 182.9L298.375 190.721L316.03 149.47C317.338 146.411 317.284 142.939 315.879 139.924L294.219 93.3986L281.625 117.559Z" fill="#375A64"/>
<path d="M284.483 182.9L283.187 185.774L296.293 192.837L297.667 190.322L284.483 182.9Z" fill="#E1E1E1"/>
<path d="M284.483 182.9C284.476 182.897 284.491 182.833 284.525 182.709C284.568 182.563 284.621 182.384 284.686 182.164C284.848 181.652 285.069 180.953 285.35 180.065C285.958 178.206 286.824 175.562 287.901 172.272C290.12 165.615 293.211 156.347 296.749 145.737L296.77 145.935C294.983 142.9 293.149 139.693 291.295 136.382C287.911 130.337 284.803 124.513 282.145 119.129C280.831 116.428 279.608 113.85 278.573 111.384C277.446 108.921 277.166 106.335 277.292 104.062C277.439 101.781 277.893 99.7289 278.664 98.0717C279.421 96.4107 280.433 95.1708 281.373 94.307C282.326 93.4487 283.207 92.9599 283.819 92.6911C284.432 92.4166 284.781 92.3489 284.781 92.3489C284.829 92.4241 283.362 92.7202 281.503 94.4461C280.6 95.3156 279.632 96.5479 278.913 98.1845C278.184 99.8097 277.76 101.838 277.638 104.079C277.538 106.317 277.827 108.822 278.946 111.225C279.993 113.673 281.228 116.239 282.548 118.929C285.225 124.292 288.342 130.103 291.721 136.144C293.574 139.45 295.404 142.659 297.182 145.692L297.236 145.787L297.201 145.889C293.599 156.479 290.453 165.727 288.192 172.37C287.059 175.642 286.148 178.27 285.508 180.119C285.195 180.995 284.948 181.686 284.767 182.191C284.686 182.406 284.62 182.581 284.565 182.724C284.517 182.843 284.49 182.902 284.483 182.9Z" fill="#1A2E35"/>
<path d="M307.356 145.55C307.314 145.62 306.77 145.326 305.842 145.016C304.916 144.703 303.582 144.423 302.096 144.466C300.608 144.516 299.295 144.878 298.391 145.248C297.484 145.615 296.959 145.942 296.914 145.875C296.881 145.832 297.343 145.397 298.249 144.933C299.148 144.466 300.52 144.028 302.081 143.977C303.643 143.931 305.037 144.283 305.965 144.692C306.898 145.1 307.386 145.505 307.356 145.55Z" fill="#1A2E35"/>
<path d="M278.555 110.837L289.585 147.744L291.142 135.609L278.555 110.837Z" fill="#1A2E35"/>
<path d="M296.776 183.346C296.806 183.41 296.638 183.536 296.62 183.81C296.591 184.093 296.785 184.399 297.156 184.287C297.529 184.181 297.527 183.818 297.348 183.596C297.187 183.375 296.976 183.361 296.966 183.289C296.934 183.236 297.228 183.079 297.588 183.346C297.75 183.473 297.923 183.703 297.91 184.029C297.902 184.362 297.621 184.667 297.294 184.756C296.97 184.858 296.569 184.755 296.382 184.478C296.196 184.21 296.216 183.924 296.283 183.729C296.441 183.311 296.774 183.283 296.776 183.346Z" fill="#1A2E35"/>
<path d="M297.885 180.688C297.914 180.752 297.745 180.879 297.728 181.152C297.699 181.435 297.894 181.742 298.263 181.628C298.638 181.524 298.635 181.16 298.457 180.938C298.295 180.717 298.084 180.702 298.074 180.632C298.043 180.578 298.337 180.421 298.696 180.688C298.857 180.815 299.03 181.045 299.018 181.371C299.011 181.704 298.73 182.01 298.403 182.098C298.079 182.201 297.677 182.096 297.49 181.821C297.305 181.553 297.324 181.266 297.392 181.072C297.55 180.653 297.882 180.625 297.885 180.688Z" fill="#1A2E35"/>
<path d="M312.97 133.676C311.326 134.544 310.752 136.964 310.942 138.814C311.132 140.665 311.811 142.463 311.763 144.323C311.73 145.65 311.325 146.935 311.058 148.236C310.792 149.537 310.67 150.93 311.177 152.158C311.684 153.384 312.983 154.368 314.287 154.124L315.59 151.49C317.657 147.312 317.589 142.395 315.407 138.276L312.97 133.676Z" fill="#1A2E35"/>
<path d="M393.452 332.105C394.297 329.176 396.108 326.343 398.908 325.137C401.82 323.882 405.194 324.596 408.175 325.679C411.156 326.761 414.083 328.21 417.248 328.406C420.414 328.601 423.987 327.1 424.935 324.073C425.826 321.229 424.11 318.194 421.963 316.127C417.449 311.782 410.667 309.94 404.575 311.402C398.484 312.864 393.277 317.585 391.228 323.505" fill="#025CBD"/>
<g opacity="0.5">
<g opacity="0.5">
<path opacity="0.5" d="M393.452 332.105C394.297 329.176 396.108 326.343 398.908 325.137C401.82 323.882 405.194 324.596 408.175 325.679C411.156 326.761 414.083 328.21 417.248 328.406C420.414 328.601 423.987 327.1 424.935 324.073C425.826 321.229 424.11 318.194 421.963 316.127C417.449 311.782 410.667 309.94 404.575 311.402C398.484 312.864 393.277 317.585 391.228 323.505" fill="black"/>
</g>
</g>
<path d="M368.373 344.821C363.728 340.409 363.96 332.728 366.277 326.756C368.593 320.784 373.65 316.198 379.298 313.175C390.246 307.316 403.932 306.873 415.236 312.011C409.682 312.194 404.312 315.348 401.446 320.109C398.9 324.336 398.334 329.466 396.231 333.93C393.89 338.902 389.589 342.921 384.47 344.922C379.351 346.923 373.466 346.887 368.373 344.821Z" fill="#025CBD"/>
<path d="M366.14 318.313C360.997 312.244 360.313 302.501 361.07 294.582C361.827 286.662 363.663 278.694 362.414 270.837C361.674 266.183 359.868 261.738 359.259 257.066C358.648 252.393 359.513 247.108 363.134 244.092C367.295 240.625 373.849 241.443 378.179 244.698C382.508 247.953 385.016 253.067 386.849 258.165C390.876 269.363 392.356 281.78 389.047 293.211C385.738 304.643 377.976 314.863 366.587 318.313" fill="#025CBD"/>
<path d="M363.672 368.114C363.657 368.114 363.651 367.872 363.652 367.415C363.659 366.957 363.652 366.279 363.691 365.409C363.756 363.669 363.925 361.15 364.315 358.058C364.706 354.967 365.318 351.3 366.29 347.293C367.247 343.276 368.886 338.995 371.202 334.829C373.527 330.661 376.362 327.062 379.23 324.098C382.105 321.13 385.046 318.821 387.645 317.099C388.929 316.21 390.172 315.536 391.242 314.911C392.339 314.336 393.296 313.863 394.081 313.485C394.856 313.159 395.472 312.899 395.93 312.708C396.355 312.534 396.58 312.449 396.586 312.463C396.591 312.476 396.376 312.587 395.964 312.786C395.515 312.995 394.911 313.278 394.151 313.634C393.38 314.035 392.438 314.526 391.357 315.12C390.305 315.762 389.079 316.449 387.814 317.348C385.251 319.093 382.35 321.409 379.513 324.369C376.68 327.327 373.878 330.903 371.573 335.037C366.846 343.306 365.551 352.002 364.612 358.097C364.186 361.175 363.972 363.683 363.856 365.418C363.807 366.256 363.768 366.921 363.737 367.417C363.709 367.874 363.687 368.114 363.672 368.114Z" fill="#1A2E35"/>
<path d="M319.32 294.369C309.806 300.11 309.836 305.334 311.426 310.265C313.014 315.197 318.853 318.623 323.693 316.777C326.429 315.733 328.413 313.353 330.106 310.964C331.798 308.574 333.389 306.017 335.762 304.299C338.135 302.582 341.575 301.926 343.958 303.628" fill="#025CBD"/>
<g opacity="0.5">
<g opacity="0.5">
<path opacity="0.5" d="M319.32 294.369C309.806 300.11 309.836 305.334 311.426 310.265C313.014 315.197 318.853 318.623 323.693 316.777C326.429 315.733 328.413 313.353 330.106 310.964C331.798 308.574 333.389 306.017 335.762 304.299C338.135 302.582 341.575 301.926 343.958 303.628" fill="black"/>
</g>
</g>
<path d="M312.197 300.663C314.685 297.226 320.831 296.23 324.712 297.945C328.591 299.661 331.434 303.062 333.978 306.457C336.523 309.852 339 313.438 342.524 315.8C346.048 318.162 350.97 319.017 354.482 316.638C356.789 315.075 358.127 312.358 358.546 309.603C358.964 306.848 358.56 304.034 357.987 301.308C357.147 297.318 355.777 293.151 352.583 290.616C349.026 287.791 344.088 287.657 339.547 287.805C334.335 287.976 329.047 288.366 324.156 290.173C319.265 291.98 314.274 295.88 312.197 300.663Z" fill="#025CBD"/>
<path d="M355.765 360.495C355.758 360.495 355.748 360.424 355.74 360.286C355.73 360.123 355.72 359.921 355.707 359.672C355.687 359.099 355.66 358.31 355.625 357.311C355.565 355.225 355.479 352.267 355.376 348.627C355.26 344.962 355.111 340.597 354.846 335.758C354.575 330.919 354.217 325.597 353.482 320.059C353.109 317.294 352.672 314.59 351.906 312.087C351.135 309.582 350.107 307.248 348.991 305.111C347.863 302.978 346.625 301.036 345.312 299.337C343.993 297.644 342.631 296.173 341.296 294.928C338.596 292.461 336.014 290.954 334.175 290.074C333.711 289.86 333.306 289.653 332.941 289.504C332.582 289.365 332.274 289.245 332.011 289.143C331.781 289.05 331.594 288.974 331.443 288.914C331.315 288.859 331.251 288.828 331.253 288.821C331.255 288.813 331.323 288.831 331.457 288.873C331.612 288.922 331.804 288.985 332.041 289.062C332.307 289.154 332.622 289.262 332.989 289.387C333.359 289.523 333.773 289.721 334.245 289.923C336.116 290.762 338.747 292.243 341.498 294.706C342.86 295.947 344.247 297.42 345.591 299.121C346.929 300.827 348.189 302.78 349.336 304.928C350.475 307.081 351.516 309.427 352.304 311.963C353.088 314.51 353.528 317.225 353.904 320.003C354.641 325.563 354.988 330.891 355.238 335.736C355.481 340.583 355.6 344.951 355.676 348.619C355.751 352.288 355.78 355.256 355.791 357.307C355.791 358.307 355.791 359.097 355.792 359.67C355.789 359.921 355.785 360.123 355.783 360.285C355.778 360.424 355.772 360.495 355.765 360.495Z" fill="#1A2E35"/>
<path d="M359.188 364.794C359.188 364.794 358.656 363.381 358.147 360.708C357.651 358.039 357.278 354.081 357.711 349.23C358.117 344.379 359.359 338.687 361.335 332.577C363.288 326.457 365.939 319.911 368.203 312.876C369.325 309.353 370.28 305.871 370.935 302.451C371.597 299.033 372.017 295.694 372.285 292.506C372.817 286.122 372.742 280.338 372.587 275.497C372.423 270.652 372.165 266.735 372.004 264.027C371.926 262.694 371.864 261.648 371.82 260.908C371.805 260.569 371.792 260.301 371.783 260.097C371.777 259.913 371.778 259.819 371.784 259.818C371.792 259.818 371.806 259.911 371.826 260.093C371.846 260.298 371.873 260.565 371.906 260.902C371.969 261.641 372.057 262.684 372.17 264.014C372.381 266.72 372.684 270.635 372.887 275.485C373.081 280.333 373.189 286.128 372.676 292.537C372.417 295.739 372.005 299.093 371.344 302.531C370.691 305.97 369.735 309.473 368.608 313.004C366.336 320.063 363.675 326.601 361.709 332.696C359.717 338.782 358.452 344.437 358.01 349.258C357.541 354.08 357.866 358.013 358.309 360.68C358.543 362.012 358.757 363.044 358.944 363.732C359.025 364.061 359.089 364.321 359.137 364.521C359.177 364.699 359.195 364.792 359.188 364.794Z" fill="#1A2E35"/>
<path d="M382.775 369.093H338.104L337.084 360.495H382.775V369.093Z" fill="#375A64"/>
<path d="M342.897 368.114L348.482 393.908H372.755L377.981 368.114H342.897Z" fill="#375A64"/>
<path d="M382.774 369.093C382.774 369.211 372.953 369.277 360.84 369.244C348.723 369.21 338.905 369.088 338.906 368.97C338.906 368.853 348.725 368.785 360.841 368.819C372.953 368.853 382.774 368.976 382.774 369.093Z" fill="#375A64"/>
<path d="M375.107 381.824C375.05 381.911 373.79 380.61 371.173 379.57C369.876 379.054 368.234 378.651 366.389 378.609C364.541 378.55 362.536 378.99 360.508 379.688C358.472 380.377 356.57 381.178 354.719 381.619C352.858 382.02 351.126 381.991 349.715 381.769C348.299 381.548 347.202 381.129 346.499 380.751C346.152 380.552 345.887 380.394 345.723 380.259C345.556 380.133 345.473 380.061 345.481 380.049C345.505 380.015 345.864 380.271 346.573 380.603C347.284 380.927 348.37 381.294 349.757 381.472C351.141 381.65 352.835 381.647 354.631 381.237C356.419 380.79 358.32 379.979 360.372 379.285C362.418 378.58 364.495 378.132 366.399 378.217C368.299 378.282 369.975 378.727 371.287 379.29C372.61 379.839 373.57 380.505 374.198 380.988C374.513 381.233 374.743 381.438 374.892 381.587C375.043 381.732 375.117 381.813 375.107 381.824Z" fill="#1A2E35"/>
<path d="M374.768 383.547C374.71 383.634 373.495 382.374 370.989 381.322C369.743 380.806 368.16 380.406 366.377 380.372C364.593 380.322 362.65 380.727 360.688 381.395C358.72 382.052 356.873 382.817 355.109 383.291C353.347 383.772 351.684 383.941 350.301 383.831C348.913 383.734 347.832 383.342 347.148 382.987C346.812 382.796 346.555 382.642 346.397 382.511C346.235 382.39 346.155 382.319 346.164 382.308C346.188 382.273 346.533 382.522 347.22 382.838C347.91 383.139 348.97 383.475 350.32 383.53C351.666 383.6 353.284 383.406 355.005 382.912C356.731 382.427 358.563 381.657 360.553 380.991C362.535 380.315 364.547 379.906 366.386 379.98C368.224 380.037 369.847 380.481 371.107 381.045C372.378 381.599 373.295 382.256 373.896 382.732C374.199 382.972 374.418 383.173 374.561 383.316C374.707 383.457 374.778 383.536 374.768 383.547Z" fill="white"/>
<path d="M375.549 380.115C375.495 380.195 374.184 378.88 371.51 377.734C370.182 377.17 368.508 376.669 366.606 376.555C364.704 376.421 362.631 376.907 360.537 377.625C358.433 378.331 356.479 379.187 354.543 379.583C352.608 379.933 350.829 379.825 349.376 379.59C347.922 379.338 346.787 378.923 346.058 378.54C345.697 378.339 345.42 378.177 345.252 378.04C345.077 377.91 344.991 377.837 345 377.825C345.024 377.79 345.393 378.055 346.129 378.391C346.867 378.722 347.991 379.084 349.423 379.293C350.852 379.486 352.6 379.558 354.469 379.196C356.322 378.8 358.284 377.934 360.401 377.221C362.51 376.498 364.658 376.003 366.631 376.164C368.59 376.302 370.293 376.848 371.63 377.458C372.979 378.061 373.963 378.751 374.611 379.253C374.934 379.507 375.174 379.717 375.326 379.87C375.482 380.02 375.56 380.103 375.549 380.115Z" fill="white"/>
<path d="M383.168 369.13C383.168 369.248 373.121 369.344 360.728 369.344C348.33 369.344 338.284 369.248 338.284 369.13C338.284 369.013 348.33 368.917 360.728 368.917C373.121 368.917 383.168 369.013 383.168 369.13Z" fill="#1A2E35"/>
<path d="M41.8115 359.317C43.418 361.611 46.5406 360.852 47.9882 359.451C49.4358 358.05 50.0478 356.02 50.6052 354.085C51.878 349.662 53.1611 345.022 52.2145 340.518C51.9315 339.171 51.4277 337.829 50.4821 336.829C49.5355 335.831 48.0804 335.236 46.7503 335.588C45.1758 336.003 44.1972 337.546 43.4903 339.012C41.4111 343.324 40.3103 348.104 40.2943 352.891C40.2868 355.127 40.55 357.471 41.8115 359.317Z" fill="#025CBD"/>
<g opacity="0.199997">
<g opacity="0.199997">
<path opacity="0.199997" d="M41.8115 359.317C43.418 361.611 46.5406 360.852 47.9882 359.451C49.4358 358.05 50.0478 356.02 50.6052 354.085C51.878 349.662 53.1611 345.022 52.2145 340.518C51.9315 339.171 51.4277 337.829 50.4821 336.829C49.5355 335.831 48.0804 335.236 46.7503 335.588C45.1758 336.003 44.1972 337.546 43.4903 339.012C41.4111 343.324 40.3103 348.104 40.2943 352.891C40.2868 355.127 40.55 357.471 41.8115 359.317Z" fill="black"/>
</g>
</g>
<path d="M47.8312 370.937C50.4585 369.582 53.5521 369.406 56.4689 369.888C58.0359 370.146 59.6696 370.615 60.7365 371.792C61.8025 372.969 62.0046 375.041 60.7797 376.052C60.0512 376.655 59.0351 376.746 58.0904 376.735C55.8062 376.708 53.2729 376.306 51.4484 377.68C50.4078 378.464 49.715 379.767 48.4704 380.153C47.2531 380.53 45.8789 379.811 45.2331 378.713C44.5882 377.615 44.5666 376.24 44.8674 375.001C44.8674 375.001 45.1842 372.303 47.8312 370.937Z" fill="#025CBD"/>
<path d="M37.3994 362.609C39.144 360.539 39.4749 357.52 38.6984 354.925C37.9229 352.332 36.1689 350.126 34.1479 348.325C31.7791 346.213 28.9929 344.569 25.999 343.516C24.8203 343.102 23.5776 342.775 22.334 342.893C21.0904 343.012 19.8383 343.648 19.2583 344.754C18.401 346.39 19.2235 348.373 20.1128 349.992C21.6788 352.844 23.4704 355.573 25.4651 358.143C27.0688 360.211 28.9065 362.252 31.3514 363.186C33.7963 364.12 36.3362 364.011 37.6325 362.316" fill="#025CBD"/>
<path d="M41.7029 393.931C41.733 393.933 41.7819 393.561 41.8477 392.888C41.922 392.129 42.015 391.176 42.125 390.042C42.2575 388.846 42.4324 387.42 42.7651 385.869C43.097 384.32 43.6158 382.643 44.2823 380.943C44.9723 379.252 45.8145 377.714 46.7977 376.485C47.7744 375.25 48.9099 374.357 49.9778 373.841C51.0418 373.316 51.9959 373.102 52.6558 373.007C53.3213 372.939 53.6936 372.886 53.6945 372.857C53.6945 372.828 53.3213 372.822 52.638 372.84C51.9612 372.885 50.9666 373.057 49.8452 373.568C48.72 374.066 47.515 374.974 46.4904 376.234C45.4582 377.489 44.585 379.06 43.8828 380.781C43.2051 382.513 42.6937 384.207 42.3769 385.789C42.0611 387.367 41.9163 388.808 41.8214 390.015C41.7311 391.223 41.6973 392.201 41.6813 392.878C41.6653 393.555 41.6738 393.929 41.7029 393.931Z" fill="#1A2E35"/>
<path d="M41.8989 391.741C41.914 391.741 41.9224 391.573 41.9271 391.256C41.9262 390.894 41.9243 390.436 41.9234 389.874C41.9196 388.672 41.9205 386.936 41.9845 384.789C42.0907 380.499 42.461 374.575 43.1736 368.065C43.8936 361.551 44.8458 355.692 45.7144 351.49C45.9193 350.436 46.1261 349.488 46.3207 348.658C46.5068 347.826 46.6647 347.108 46.8179 346.527C46.9495 345.981 47.0558 345.537 47.1413 345.183C47.2099 344.874 47.24 344.71 47.2259 344.706C47.2109 344.701 47.1535 344.858 47.0576 345.159C46.9514 345.507 46.8189 345.946 46.6563 346.484C46.4777 347.06 46.2953 347.773 46.0866 348.601C45.8695 349.428 45.6411 350.374 45.4164 351.426C44.4698 355.624 43.4668 361.489 42.7459 368.017C42.0315 374.541 41.709 380.482 41.6808 384.785C41.6555 386.935 41.7006 388.676 41.756 389.878C41.7899 390.44 41.8181 390.897 41.8406 391.26C41.8641 391.576 41.8839 391.741 41.8989 391.741Z" fill="#1A2E35"/>
<path d="M41.9278 380.283C41.957 380.282 41.9523 379.769 41.9175 378.838C41.8639 377.909 41.7361 376.567 41.4747 374.923C41.1974 373.283 40.8102 371.334 40.202 369.218C39.622 367.094 38.8268 364.799 37.8153 362.467C35.8376 357.773 33.1492 353.935 30.8095 351.558C30.2615 350.927 29.6505 350.472 29.1617 350.026C28.9088 349.813 28.686 349.599 28.4576 349.431C28.2292 349.273 28.0158 349.125 27.8184 348.99C27.0486 348.463 26.618 348.185 26.6021 348.211C26.5325 348.304 28.326 349.36 30.5895 351.769C32.8446 354.172 35.4578 357.983 37.4215 362.638C38.4235 364.95 39.2244 367.222 39.8203 369.327C40.4454 371.422 40.8609 373.35 41.1749 374.975C41.4738 376.603 41.6468 377.931 41.7511 378.852C41.8357 379.773 41.8977 380.285 41.9278 380.283Z" fill="#1A2E35"/>
<path d="M180.532 0.384464C180.532 0.372246 180.694 0.368484 181.011 0.373184C181.364 0.382584 181.83 0.393867 182.419 0.408905C183.041 0.401386 183.802 0.496326 184.699 0.634506C185.147 0.704063 185.636 0.749184 186.146 0.855404C186.656 0.981365 187.195 1.11485 187.767 1.25584C190.028 1.88282 192.788 2.87922 195.587 4.75359C198.389 6.59504 201.259 9.259 203.514 12.8545C205.773 16.419 207.467 20.9103 207.681 25.9102C207.991 30.8743 206.843 36.3282 203.973 41.1617C201.192 46.045 196.534 50.1434 190.91 52.5281C188.09 53.7182 184.996 54.3668 181.848 54.5238C178.698 54.7447 175.464 54.3066 172.37 53.3441L172.089 53.2548L172.312 53.2529C166.892 55.1301 161.59 56.9678 156.472 58.7406L155.827 58.9634L156.03 58.3129C157.451 53.7548 158.824 49.3444 160.142 45.1181L160.211 45.4358C157.172 42.0152 155.113 37.9769 154.107 33.8908C153.084 29.798 153.12 25.6883 153.854 21.9791C154.594 18.2604 156.085 14.946 157.941 12.2162C159.798 9.47896 162.008 7.32166 164.213 5.6729C165.292 4.80811 166.446 4.18207 167.499 3.54193C168.613 3.01929 169.629 2.4487 170.655 2.11031C171.671 1.74746 172.603 1.38557 173.506 1.20415C174.396 0.983246 175.202 0.763287 175.949 0.692783C176.691 0.595024 177.343 0.482227 177.913 0.434288C178.473 0.416428 178.952 0.401386 179.355 0.388226C179.716 0.381649 180.004 0.376007 180.234 0.371307C180.432 0.370365 180.532 0.375065 180.532 0.384464C180.532 0.393867 180.432 0.408909 180.235 0.427708C180.006 0.446507 179.718 0.470005 179.358 0.500088C178.96 0.527348 178.484 0.560246 177.928 0.598785C177.365 0.665527 176.719 0.793365 175.986 0.908047C175.247 0.994526 174.452 1.22858 173.575 1.46358C172.687 1.65816 171.769 2.03229 170.77 2.40547C169.763 2.75421 168.766 3.33324 167.674 3.86058C166.643 4.50636 165.512 5.13428 164.459 5.99908C162.304 7.64597 160.15 9.78634 158.347 12.4888C156.545 15.1829 155.106 18.4419 154.403 22.0881C153.705 25.725 153.69 29.7472 154.705 33.7404C155.704 37.7297 157.728 41.6646 160.703 44.9959L160.827 45.135L160.772 45.3136C159.463 49.5427 158.098 53.9569 156.687 58.5169L156.247 58.0901C161.362 56.3135 166.665 54.473 172.083 52.5911L172.192 52.5535L172.306 52.5892L172.581 52.6757C175.595 53.6129 178.744 54.0425 181.815 53.8272C184.883 53.6778 187.897 53.0498 190.649 51.8936C196.133 49.5765 200.688 45.5928 203.418 40.8327C206.235 36.1242 207.38 30.801 207.101 25.9402C206.917 21.0447 205.286 16.6352 203.095 13.1186C200.909 9.57203 198.109 6.92498 195.369 5.07977C192.631 3.2007 189.921 2.17987 187.694 1.51905C187.131 1.36771 186.598 1.22577 186.096 1.09134C185.592 0.974785 185.11 0.920265 184.667 0.839428C183.781 0.680569 183.027 0.564003 182.41 0.549904C181.824 0.505726 181.361 0.470943 181.01 0.444626C180.694 0.416424 180.532 0.396687 180.532 0.384464Z" fill="#025CBD"/>
<path d="M164.606 29.278L168.774 25.11L176.811 32.255L192.588 17.073L196.458 21.241L176.216 40.292L164.606 29.278Z" fill="#025CBD"/>
</svg>
